Fira Sans-SemiLight.ufo
<glyph name="numbersign" format="1">
  <advance width="491"/>
  <unicode hex="0023"/>
  <outline>
    <contour>
      <point x="393" y="662" type="line"/>
      <point x="305" y="0" type="line"/>
      <point x="335" y="0" type="line"/>
      <point x="423" y="662" type="line"/>
    </contour>
    <contour>
      <point x="15" y="221" type="line"/>
      <point x="15" y="194" type="line"/>
      <point x="439" y="194" type="line"/>
      <point x="439" y="221" type="line"/>
    </contour>
    <contour>
      <point x="156" y="662" type="line"/>
      <point x="68" y="0" type="line"/>
      <point x="98" y="0" type="line"/>
      <point x="186" y="662" type="line"/>
    </contour>
    <contour>
      <point x="52" y="484" type="line"/>
      <point x="52" y="457" type="line"/>
      <point x="476" y="457" type="line"/>
      <point x="476" y="484" type="line"/>
    </contour>
  </outline>
</glyph>
<glyph name="plus" format="1">
  <advance width="488"/>
  <unicode hex="002B"/>
  <outline>
    <contour>
      <point x="229" y="499" type="line"/>
      <point x="229" y="345" type="line"/>
      <point x="75" y="345" type="line"/>
      <point x="75" y="316" type="line"/>
      <point x="229" y="316" type="line"/>
      <point x="229" y="162" type="line"/>
      <point x="260" y="162" type="line"/>
      <point x="260" y="316" type="line"/>
      <point x="413" y="316" type="line"/>
      <point x="413" y="345" type="line"/>
      <point x="260" y="345" type="line"/>
      <point x="260" y="499" type="line"/>
    </contour>
  </outline>
</glyph>
<glyph name="G" format="1">
  <advance width="608"/>
  <unicode hex="0047"/>
  <outline>
    <contour>
      <point x="214" y="692"/>
      <point x="75" y="584"/>
      <point x="75" y="345" type="curve" smooth="yes"/>
      <point x="75" y="109"/>
      <point x="189" y="-10"/>
      <point x="353" y="-10" type="curve" smooth="yes"/>
      <point x="416" y="-10"/>
      <point x="481" y="8"/>
      <point x="538" y="42" type="curve"/>
      <point x="538" y="359" type="line"/>
      <point x="360" y="359" type="line"/>
      <point x="364" y="330" type="line"/>
      <point x="507" y="330" type="line"/>
      <point x="507" y="58" type="line"/>
      <point x="462" y="33"/>
      <point x="417" y="19"/>
      <point x="353" y="19" type="curve" smooth="yes"/>
      <point x="207" y="19"/>
      <point x="107" y="125"/>
      <point x="107" y="345" type="curve" smooth="yes"/>
      <point x="107" y="575"/>
      <point x="232" y="663"/>
      <point x="350" y="663" type="curve" smooth="yes"/>
      <point x="411" y="663"/>
      <point x="456" y="646"/>
      <point x="504" y="609" type="curve"/>
      <point x="523" y="631" type="line"/>
      <point x="470" y="672"/>
      <point x="422" y="692"/>
      <point x="350" y="692" type="curve" smooth="yes"/>
    </contour>
    <contour>
      <point x="349" y="682" type="move" name="top"/>
    </contour>
    <contour>
      <point x="337" y="0" type="move" name="bottom"/>
    </contour>
  </outline>
</glyph>
<glyph name="Y" format="1">
  <advance width="500"/>
  <unicode hex="0059"/>
  <outline>
    <contour>
      <point x="445" y="682" type="line"/>
      <point x="252" y="299" type="line"/>
      <point x="55" y="682" type="line"/>
      <point x="20" y="682" type="line"/>
      <point x="236" y="270" type="line"/>
      <point x="236" y="0" type="line"/>
      <point x="267" y="0" type="line"/>
      <point x="267" y="271" type="line"/>
      <point x="480" y="682" type="line"/>
    </contour>
    <contour>
      <point x="250" y="682" type="move" name="top"/>
    </contour>
    <contour>
      <point x="252" y="0" type="move" name="bottom"/>
    </contour>
    <contour>
      <point x="9" y="682" type="move" name="topleft"/>
    </contour>
  </outline>
</glyph>
<glyph name="bracketleft" format="1">
  <advance width="313"/>
  <unicode hex="005B"/>
  <outline>
    <contour>
      <point x="100" y="799" type="line"/>
      <point x="100" y="-109" type="line"/>
      <point x="233" y="-109" type="line"/>
      <point x="233" y="-84" type="line"/>
      <point x="128" y="-84" type="line"/>
      <point x="128" y="774" type="line"/>
      <point x="233" y="774" type="line"/>
      <point x="233" y="799" type="line"/>
    </contour>
  </outline>
</glyph>
<glyph name="bracketright" format="1">
  <advance width="313"/>
  <unicode hex="005D"/>
  <outline>
    <contour>
      <point x="80" y="799" type="line"/>
      <point x="80" y="774" type="line"/>
      <point x="185" y="774" type="line"/>
      <point x="185" y="-84" type="line"/>
      <point x="80" y="-84" type="line"/>
      <point x="80" y="-109" type="line"/>
      <point x="213" y="-109" type="line"/>
      <point x="213" y="799" type="line"/>
    </contour>
  </outline>
</glyph>
<glyph name="q" format="1">
  <advance width="575"/>
  <unicode hex="0071"/>
  <outline>
    <contour>
      <point x="430" y="-193" type="line"/>
      <point x="460" y="-199" type="line"/>
      <point x="460" y="520" type="line"/>
      <point x="434" y="520" type="line"/>
      <point x="431" y="445" type="line"/>
      <point x="430" y="418" type="line"/>
    </contour>
    <contour>
      <point x="151" y="530"/>
      <point x="75" y="419"/>
      <point x="75" y="258" type="curve" smooth="yes"/>
      <point x="75" y="90"/>
      <point x="152" y="-10"/>
      <point x="269" y="-10" type="curve" smooth="yes"/>
      <point x="358" y="-10"/>
      <point x="407" y="39"/>
      <point x="434" y="91" type="curve"/>
      <point x="436" y="141" type="line"/>
      <point x="399" y="63"/>
      <point x="353" y="18"/>
      <point x="270" y="18" type="curve" smooth="yes"/>
      <point x="170" y="18"/>
      <point x="107" y="106"/>
      <point x="106" y="258" type="curve" smooth="yes"/>
      <point x="105" y="412"/>
      <point x="178" y="502"/>
      <point x="281" y="502" type="curve" smooth="yes"/>
      <point x="361" y="502"/>
      <point x="408" y="454"/>
      <point x="438" y="403" type="curve"/>
      <point x="437" y="445" type="line"/>
      <point x="411" y="484"/>
      <point x="366" y="530"/>
      <point x="280" y="530" type="curve" smooth="yes"/>
    </contour>
    <contour>
      <point x="290" y="520" type="move" name="top"/>
    </contour>
    <contour>
      <point x="290" y="-193" type="move" name="bottom"/>
    </contour>
  </outline>
</glyph>
<glyph name="braceleft" format="1">
  <advance width="329"/>
  <unicode hex="007B"/>
  <outline>
    <contour>
      <point x="183" y="822"/>
      <point x="141" y="790"/>
      <point x="141" y="716" type="curve" smooth="yes"/>
      <point x="141" y="434" type="line" smooth="yes"/>
      <point x="141" y="381"/>
      <point x="107" y="364"/>
      <point x="60" y="364" type="curve"/>
      <point x="60" y="334" type="line"/>
      <point x="107" y="334"/>
      <point x="141" y="317"/>
      <point x="141" y="264" type="curve" smooth="yes"/>
      <point x="141" y="-18" type="line" smooth="yes"/>
      <point x="141" y="-92"/>
      <point x="183" y="-124"/>
      <point x="249" y="-124" type="curve"/>
      <point x="249" y="-99" type="line"/>
      <point x="190" y="-99"/>
      <point x="169" y="-70"/>
      <point x="169" y="-13" type="curve" smooth="yes"/>
      <point x="169" y="252" type="line" smooth="yes"/>
      <point x="169" y="318"/>
      <point x="145" y="339"/>
      <point x="93" y="349" type="curve"/>
      <point x="145" y="359"/>
      <point x="169" y="380"/>
      <point x="169" y="446" type="curve" smooth="yes"/>
      <point x="169" y="711" type="line" smooth="yes"/>
      <point x="169" y="768"/>
      <point x="190" y="797"/>
      <point x="249" y="797" type="curve"/>
      <point x="249" y="822" type="line"/>
    </contour>
  </outline>
</glyph>
<glyph name="cent" format="1">
  <advance width="462"/>
  <unicode hex="00A2"/>
  <outline>
    <contour>
      <point x="270" y="677" type="line"/>
      <point x="270" y="527" type="line"/>
      <point x="296" y="527" type="line"/>
      <point x="296" y="677" type="line"/>
    </contour>
    <contour>
      <point x="269" y="-147" type="line"/>
      <point x="296" y="-147" type="line"/>
      <point x="296" y="-6" type="line"/>
      <point x="269" y="-7" type="line"/>
    </contour>
    <component base="c"/>
  </outline>
</glyph>
<glyph name="multiply" format="1">
  <advance width="488"/>
  <unicode hex="00D7"/>
  <outline>
    <contour>
      <point x="242" y="326" type="line"/>
      <point x="117" y="459" type="line"/>
      <point x="95" y="439" type="line"/>
      <point x="222" y="306" type="line"/>
      <point x="95" y="176" type="line"/>
      <point x="117" y="156" type="line"/>
      <point x="244" y="288" type="line"/>
      <point x="371" y="156" type="line"/>
      <point x="393" y="176" type="line"/>
      <point x="264" y="308" type="line"/>
      <point x="393" y="439" type="line"/>
      <point x="371" y="459" type="line"/>
    </contour>
  </outline>
</glyph>
<glyph name="lslash" format="1">
  <advance width="289"/>
  <unicode hex="0142"/>
  <outline>
    <contour>
      <point x="264" y="430" type="line"/>
      <point x="251" y="452" type="line"/>
      <point x="118" y="370" type="line"/>
      <point x="41" y="322" type="line"/>
      <point x="54" y="301" type="line"/>
    </contour>
    <component base="l" xOffset="7"/>
  </outline>
</glyph>
<glyph name="uni018D" format="1">
  <advance width="558"/>
  <unicode hex="018D"/>
  <outline>
    <contour>
      <point x="433" y="-14"/>
      <point x="391" y="24"/>
      <point x="296" y="59" type="curve" smooth="yes"/>
      <point x="148" y="114"/>
      <point x="101" y="169"/>
      <point x="101" y="293" type="curve" smooth="yes"/>
      <point x="101" y="421"/>
      <point x="165" y="502"/>
      <point x="282" y="502" type="curve" smooth="yes"/>
      <point x="391" y="502"/>
      <point x="457" y="426"/>
      <point x="457" y="295" type="curve" smooth="yes"/>
      <point x="457" y="161"/>
      <point x="372" y="85"/>
      <point x="273" y="54" type="curve"/>
      <point x="306" y="43" type="line"/>
      <point x="417" y="83"/>
      <point x="488" y="166"/>
      <point x="488" y="295" type="curve" smooth="yes"/>
      <point x="488" y="442"/>
      <point x="411" y="530"/>
      <point x="282" y="530" type="curve" smooth="yes"/>
      <point x="148" y="530"/>
      <point x="70" y="437"/>
      <point x="70" y="293" type="curve" smooth="yes"/>
      <point x="70" y="160"/>
      <point x="129" y="94"/>
      <point x="261" y="45" type="curve" smooth="yes"/>
      <point x="376" y="2"/>
      <point x="403" y="-26"/>
      <point x="403" y="-82" type="curve" smooth="yes"/>
      <point x="403" y="-137"/>
      <point x="354" y="-177"/>
      <point x="274" y="-177" type="curve" smooth="yes"/>
      <point x="219" y="-177"/>
      <point x="185" y="-165"/>
      <point x="142" y="-139" type="curve"/>
      <point x="124" y="-160" type="line"/>
      <point x="169" y="-189"/>
      <point x="214" y="-205"/>
      <point x="277" y="-205" type="curve" smooth="yes"/>
      <point x="372" y="-205"/>
      <point x="435" y="-151"/>
      <point x="434" y="-83" type="curve" smooth="yes"/>
    </contour>
    <contour>
      <point x="279" y="520" type="move" name="top"/>
    </contour>
    <contour>
      <point x="279" y="-193" type="move" name="bottom"/>
    </contour>
  </outline>
</glyph>
<glyph name="uni018E" format="1">
  <advance width="493"/>
  <unicode hex="018E"/>
  <outline>
    <contour>
      <point x="47" y="653" type="line"/>
      <point x="342" y="653" type="line"/>
      <point x="342" y="373" type="line"/>
      <point x="90" y="373" type="line"/>
      <point x="90" y="345" type="line"/>
      <point x="342" y="345" type="line"/>
      <point x="342" y="29" type="line"/>
      <point x="40" y="29" type="line"/>
      <point x="40" y="0" type="line"/>
      <point x="373" y="0" type="line"/>
      <point x="373" y="682" type="line"/>
      <point x="47" y="682" type="line"/>
    </contour>
    <contour>
      <point x="195" y="682" type="move" name="top"/>
    </contour>
    <contour>
      <point x="193" y="0" type="move" name="bottom"/>
    </contour>
  </outline>
</glyph>
<glyph name="uni0239" format="1">
  <advance width="845"/>
  <unicode hex="0239"/>
  <outline>
    <contour>
      <point x="151" y="530"/>
      <point x="75" y="419"/>
      <point x="75" y="258" type="curve" smooth="yes"/>
      <point x="75" y="90"/>
      <point x="152" y="-10"/>
      <point x="259" y="-10" type="curve" smooth="yes"/>
      <point x="338" y="-10"/>
      <point x="387" y="39"/>
      <point x="415" y="91" type="curve"/>
      <point x="416" y="141" type="line"/>
      <point x="379" y="63"/>
      <point x="333" y="18"/>
      <point x="260" y="18" type="curve" smooth="yes"/>
      <point x="170" y="18"/>
      <point x="107" y="106"/>
      <point x="106" y="258" type="curve" smooth="yes"/>
      <point x="105" y="412"/>
      <point x="178" y="502"/>
      <point x="271" y="502" type="curve" smooth="yes"/>
      <point x="339" y="502"/>
      <point x="386" y="446"/>
      <point x="416" y="395" type="curve"/>
      <point x="415" y="435" type="line"/>
      <point x="389" y="479"/>
      <point x="345" y="530"/>
      <point x="270" y="530" type="curve" smooth="yes"/>
    </contour>
    <contour>
      <point x="414" y="520" type="line"/>
      <point x="411" y="434" type="line"/>
      <point x="410" y="418" type="line"/>
      <point x="410" y="-199" type="line"/>
      <point x="440" y="-193" type="line"/>
      <point x="440" y="421" type="line"/>
      <point x="440" y="434" type="line"/>
      <point x="436" y="520" type="line"/>
    </contour>
    <contour>
      <point x="525" y="530"/>
      <point x="471" y="488"/>
      <point x="433" y="430" type="curve"/>
      <point x="434" y="398" type="line"/>
      <point x="480" y="460"/>
      <point x="524" y="502"/>
      <point x="597" y="502" type="curve" smooth="yes"/>
      <point x="685" y="502"/>
      <point x="739" y="422"/>
      <point x="739" y="264" type="curve" smooth="yes"/>
      <point x="739" y="105"/>
      <point x="682" y="18"/>
      <point x="587" y="18" type="curve" smooth="yes"/>
      <point x="524" y="18"/>
      <point x="472" y="62"/>
      <point x="434" y="142" type="curve"/>
      <point x="435" y="93" type="line"/>
      <point x="463" y="39"/>
      <point x="519" y="-10"/>
      <point x="588" y="-10" type="curve" smooth="yes"/>
      <point x="703" y="-10"/>
      <point x="770" y="94"/>
      <point x="770" y="264" type="curve" smooth="yes"/>
      <point x="770" y="436"/>
      <point x="704" y="530"/>
      <point x="597" y="530" type="curve" smooth="yes"/>
    </contour>
    <contour>
      <point x="425" y="520" type="move" name="top"/>
    </contour>
    <contour>
      <point x="425" y="-193" type="move" name="bottom"/>
    </contour>
  </outline>
</glyph>
<glyph name="uni0244" format="1">
  <advance width="662"/>
  <unicode hex="0244"/>
  <outline>
    <contour>
      <point x="542" y="542" type="line"/>
      <point x="57" y="542" type="line"/>
      <point x="57" y="518" type="line"/>
      <point x="120" y="518" type="line"/>
      <point x="605" y="518" type="line"/>
      <point x="605" y="542" type="line"/>
    </contour>
    <component base="U" xOffset="10"/>
  </outline>
</glyph>
<glyph name="uni024B" format="1">
  <advance width="575"/>
  <unicode hex="024B"/>
  <outline>
    <contour>
      <point x="358" y="-10"/>
      <point x="407" y="39"/>
      <point x="434" y="91" type="curve"/>
      <point x="436" y="141" type="line"/>
      <point x="399" y="63"/>
      <point x="353" y="18"/>
      <point x="270" y="18" type="curve" smooth="yes"/>
      <point x="170" y="18"/>
      <point x="107" y="106"/>
      <point x="106" y="258" type="curve" smooth="yes"/>
      <point x="105" y="412"/>
      <point x="183" y="502"/>
      <point x="281" y="502" type="curve" smooth="yes"/>
      <point x="361" y="502"/>
      <point x="408" y="454"/>
      <point x="438" y="403" type="curve"/>
      <point x="437" y="445" type="line"/>
      <point x="411" y="484"/>
      <point x="366" y="530"/>
      <point x="280" y="530" type="curve" smooth="yes"/>
      <point x="151" y="530"/>
      <point x="75" y="419"/>
      <point x="75" y="258" type="curve" smooth="yes"/>
      <point x="75" y="90"/>
      <point x="152" y="-10"/>
      <point x="269" y="-10" type="curve" smooth="yes"/>
    </contour>
    <contour>
      <point x="526" y="-199"/>
      <point x="544" y="-194"/>
      <point x="557" y="-188" type="curve"/>
      <point x="548" y="-163" type="line"/>
      <point x="536" y="-168"/>
      <point x="523" y="-171"/>
      <point x="511" y="-171" type="curve" smooth="yes"/>
      <point x="474" y="-171"/>
      <point x="460" y="-152"/>
      <point x="460" y="-112" type="curve"/>
      <point x="460" y="1" type="line"/>
      <point x="430" y="1" type="line"/>
      <point x="430" y="-111" type="line"/>
      <point x="430" y="-173"/>
      <point x="462" y="-199"/>
      <point x="508" y="-199" type="curve" smooth="yes"/>
    </contour>
    <contour>
      <point x="460" y="0" type="line"/>
      <point x="460" y="520" type="line"/>
      <point x="434" y="520" type="line"/>
      <point x="431" y="445" type="line"/>
      <point x="430" y="418" type="line"/>
      <point x="430" y="0" type="line"/>
    </contour>
    <contour>
      <point x="290" y="520" type="move" name="top"/>
    </contour>
    <contour>
      <point x="290" y="-193" type="move" name="bottom"/>
    </contour>
  </outline>
</glyph>
<glyph name="uni0271" format="1">
  <advance width="849"/>
  <unicode hex="0271"/>
  <outline>
    <contour>
      <point x="695" y="-199"/>
      <point x="739" y="-161"/>
      <point x="739" y="-82" type="curve" smooth="yes"/>
      <point x="739" y="1" type="line"/>
      <point x="709" y="1" type="line"/>
      <point x="709" y="-81" type="line" smooth="yes"/>
      <point x="709" y="-150"/>
      <point x="675" y="-172"/>
      <point x="635" y="-172" type="curve" smooth="yes"/>
      <point x="600" y="-172"/>
      <point x="578" y="-161"/>
      <point x="559" y="-148" type="curve"/>
      <point x="544" y="-168" type="line"/>
      <point x="564" y="-183"/>
      <point x="594" y="-199"/>
      <point x="635" y="-199" type="curve" smooth="yes"/>
    </contour>
    <component base="m"/>
    <contour>
      <point x="432" y="-193" type="move" name="bottom"/>
    </contour>
  </outline>
</glyph>
<glyph name="uni0273" format="1">
  <advance width="582"/>
  <unicode hex="0273"/>
  <outline>
    <component base="n"/>
    <component base="hookHELPER" xOffset="676" xScale="-1"/>
    <contour>
      <point x="303" y="-193" type="move" name="bottom"/>
    </contour>
  </outline>
</glyph>
<glyph name="uni0280" format="1">
  <advance width="522"/>
  <unicode hex="0280"/>
  <outline>
    <contour>
      <point x="115" y="520" type="line"/>
      <point x="115" y="0" type="line"/>
      <point x="145" y="0" type="line"/>
      <point x="145" y="492" type="line"/>
      <point x="234" y="492" type="line" smooth="yes"/>
      <point x="359" y="492"/>
      <point x="405" y="450"/>
      <point x="405" y="373" type="curve" smooth="yes"/>
      <point x="405" y="296"/>
      <point x="347" y="255"/>
      <point x="242" y="255" type="curve" smooth="yes"/>
      <point x="138" y="255" type="line"/>
      <point x="138" y="228" type="line"/>
      <point x="242" y="228" type="line" smooth="yes"/>
      <point x="371" y="228"/>
      <point x="436" y="285"/>
      <point x="436" y="373" type="curve" smooth="yes"/>
      <point x="436" y="467"/>
      <point x="374" y="520"/>
      <point x="237" y="520" type="curve" smooth="yes"/>
    </contour>
    <contour>
      <point x="259" y="247" type="line"/>
      <point x="421" y="0" type="line"/>
      <point x="457" y="0" type="line"/>
      <point x="290" y="252" type="line"/>
    </contour>
    <contour>
      <point x="254" y="520" type="move" name="top"/>
    </contour>
    <contour>
      <point x="254" y="0" type="move" name="bottom"/>
    </contour>
  </outline>
</glyph>
<glyph name="uni0281" format="1">
  <advance width="522"/>
  <unicode hex="0281"/>
  <outline>
    <contour>
      <point x="374" y="0"/>
      <point x="436" y="53"/>
      <point x="436" y="147" type="curve" smooth="yes"/>
      <point x="436" y="235"/>
      <point x="371" y="292"/>
      <point x="242" y="292" type="curve" smooth="yes"/>
      <point x="138" y="292" type="line"/>
      <point x="138" y="265" type="line"/>
      <point x="242" y="265" type="line" smooth="yes"/>
      <point x="347" y="265"/>
      <point x="405" y="224"/>
      <point x="405" y="147" type="curve" smooth="yes"/>
      <point x="405" y="70"/>
      <point x="359" y="28"/>
      <point x="234" y="28" type="curve" smooth="yes"/>
      <point x="145" y="28" type="line"/>
      <point x="145" y="520" type="line"/>
      <point x="115" y="520" type="line"/>
      <point x="115" y="0" type="line"/>
      <point x="237" y="0" type="line" smooth="yes"/>
    </contour>
    <contour>
      <point x="457" y="520" type="line"/>
      <point x="421" y="520" type="line"/>
      <point x="259" y="273" type="line"/>
      <point x="290" y="268" type="line"/>
    </contour>
    <contour>
      <point x="254" y="520" type="move" name="top"/>
    </contour>
    <contour>
      <point x="254" y="0" type="move" name="bottom"/>
    </contour>
  </outline>
</glyph>
<glyph name="uni0283" format="1">
  <advance width="260"/>
  <unicode hex="0283"/>
  <outline>
    <contour>
      <point x="115" y="520" type="line"/>
      <point x="115" y="0" type="line"/>
      <point x="145" y="0" type="line"/>
      <point x="145" y="520" type="line"/>
    </contour>
    <component base="hookaboveHELPER2" xOffset="76"/>
    <component base="hookHELPER" xOffset="-89"/>
    <contour>
      <point x="218" y="734" type="move" name="top"/>
    </contour>
    <contour>
      <point x="41" y="-193" type="move" name="bottom"/>
    </contour>
  </outline>
</glyph>
<glyph name="uni0287" format="1">
  <advance width="325"/>
  <unicode hex="0287"/>
  <outline>
    <component base="t" xOffset="325" yOffset="520" xScale="-1" yScale="-1"/>
    <contour>
      <point x="98" y="520" type="move" name="top"/>
    </contour>
    <contour>
      <point x="201" y="-124" type="move" name="bottom"/>
    </contour>
  </outline>
</glyph>
<glyph name="uni02A2" format="1">
  <advance width="427"/>
  <unicode hex="02A2"/>
  <outline>
    <contour>
      <point x="149" y="205" type="line"/>
      <point x="149" y="178" type="line"/>
      <point x="299" y="178" type="line"/>
      <point x="367" y="178" type="line"/>
      <point x="367" y="205" type="line"/>
    </contour>
    <component base="uni0295"/>
  </outline>
</glyph>
<glyph name="uni0302" format="1">
  <advance width="325"/>
  <unicode hex="0302"/>
  <outline>
    <contour>
      <point x="162" y="736" type="line"/>
      <point x="280" y="651" type="line"/>
      <point x="295" y="669" type="line"/>
      <point x="170" y="769" type="line"/>
      <point x="154" y="769" type="line"/>
      <point x="30" y="669" type="line"/>
      <point x="45" y="651" type="line"/>
    </contour>
    <contour>
      <point x="165" y="769" type="move" name="top"/>
    </contour>
    <contour>
      <point x="163" y="520" type="move" name="_top"/>
    </contour>
  </outline>
</glyph>
<glyph name="uni0304" format="1">
  <advance width="274"/>
  <unicode hex="0304"/>
  <outline>
    <contour>
      <point x="244" y="712" type="line"/>
      <point x="30" y="712" type="line"/>
      <point x="30" y="683" type="line"/>
      <point x="244" y="683" type="line"/>
    </contour>
    <contour>
      <point x="139" y="712" type="move" name="top"/>
    </contour>
    <contour>
      <point x="137" y="520" type="move" name="_top"/>
    </contour>
  </outline>
</glyph>
<glyph name="uni030D" format="1">
  <advance width="92"/>
  <unicode hex="030D"/>
  <outline>
    <contour>
      <point x="62" y="639" type="line"/>
      <point x="62" y="842" type="line"/>
      <point x="30" y="842" type="line"/>
      <point x="30" y="639" type="line"/>
    </contour>
    <contour>
      <point x="46" y="842" type="move" name="top"/>
    </contour>
    <contour>
      <point x="46" y="520" type="move" name="_top"/>
    </contour>
  </outline>
</glyph>
<glyph name="uni030F" format="1">
  <advance width="268"/>
  <unicode hex="030F"/>
  <outline>
    <contour>
      <point x="30" y="778" type="line"/>
      <point x="112" y="649" type="line"/>
      <point x="134" y="660" type="line"/>
      <point x="61" y="794" type="line"/>
    </contour>
    <contour>
      <point x="141" y="777" type="line"/>
      <point x="216" y="653" type="line"/>
      <point x="238" y="664" type="line"/>
      <point x="172" y="793" type="line"/>
    </contour>
    <contour>
      <point x="136" y="794" type="move" name="top"/>
    </contour>
    <contour>
      <point x="164" y="520" type="move" name="_top"/>
    </contour>
  </outline>
</glyph>
<glyph name="uni0312" format="1">
  <advance width="139"/>
  <unicode hex="0312"/>
  <outline>
    <component base="uni0326" xOffset="139" yOffset="502" xScale="-1" yScale="-1"/>
    <contour>
      <point x="69" y="520" type="move" name="_top"/>
    </contour>
  </outline>
</glyph>
<glyph name="uni0313" format="1">
  <advance width="139"/>
  <unicode hex="0313"/>
  <outline>
    <component base="uni0326" yOffset="858"/>
    <contour>
      <point x="39" y="520" type="move" name="_top"/>
    </contour>
  </outline>
</glyph>
<glyph name="uni031B" format="1">
  <advance width="154"/>
  <unicode hex="031B"/>
  <outline>
    <contour>
      <point x="94" y="443"/>
      <point x="124" y="470"/>
      <point x="124" y="523" type="curve" smooth="yes"/>
      <point x="124" y="559"/>
      <point x="115" y="586"/>
      <point x="106" y="604" type="curve"/>
      <point x="83" y="595" type="line"/>
      <point x="91" y="575"/>
      <point x="97" y="552"/>
      <point x="97" y="523" type="curve" smooth="yes"/>
      <point x="97" y="484"/>
      <point x="79" y="465"/>
      <point x="30" y="460" type="curve"/>
      <point x="39" y="439" type="line"/>
    </contour>
    <contour>
      <point x="50" y="520" type="move" name="_topright"/>
    </contour>
    <contour>
      <point x="102" y="520" type="move" name="topright"/>
    </contour>
  </outline>
</glyph>
<glyph name="uni0326" format="1">
  <advance width="139"/>
  <unicode hex="0326"/>
  <outline>
    <contour>
      <point x="57" y="-91"/>
      <point x="44" y="-105"/>
      <point x="44" y="-122" type="curve" smooth="yes"/>
      <point x="44" y="-138"/>
      <point x="51" y="-147"/>
      <point x="64" y="-152" type="curve"/>
      <point x="30" y="-265" type="line"/>
      <point x="51" y="-265" type="line"/>
      <point x="90" y="-179" type="line" smooth="yes"/>
      <point x="104" y="-148"/>
      <point x="109" y="-138"/>
      <point x="109" y="-122" type="curve" smooth="yes"/>
      <point x="109" y="-105"/>
      <point x="98" y="-91"/>
      <point x="76" y="-91" type="curve" smooth="yes"/>
    </contour>
    <contour>
      <point x="77" y="0" type="move" name="_bottom"/>
    </contour>
  </outline>
</glyph>
<glyph name="tonos" format="1">
  <advance width="96"/>
  <unicode hex="0384"/>
  <outline>
    <contour>
      <point x="31" y="602" type="line"/>
      <point x="52" y="602" type="line"/>
      <point x="66" y="740" type="line"/>
      <point x="30" y="742" type="line"/>
    </contour>
    <contour>
      <point x="42" y="520" type="move" name="_top"/>
    </contour>
  </outline>
</glyph>
<glyph name="dieresistonos" format="1">
  <advance width="283"/>
  <unicode hex="0385"/>
  <outline>
    <contour>
      <point x="40" y="690"/>
      <point x="30" y="679"/>
      <point x="30" y="665" type="curve" smooth="yes"/>
      <point x="30" y="651"/>
      <point x="40" y="640"/>
      <point x="55" y="640" type="curve" smooth="yes"/>
      <point x="71" y="640"/>
      <point x="81" y="651"/>
      <point x="81" y="665" type="curve" smooth="yes"/>
      <point x="81" y="679"/>
      <point x="71" y="690"/>
      <point x="55" y="690" type="curve" smooth="yes"/>
    </contour>
    <contour>
      <point x="212" y="690"/>
      <point x="202" y="679"/>
      <point x="202" y="665" type="curve" smooth="yes"/>
      <point x="202" y="651"/>
      <point x="212" y="640"/>
      <point x="228" y="640" type="curve" smooth="yes"/>
      <point x="243" y="640"/>
      <point x="253" y="651"/>
      <point x="253" y="665" type="curve" smooth="yes"/>
      <point x="253" y="679"/>
      <point x="243" y="690"/>
      <point x="228" y="690" type="curve" smooth="yes"/>
    </contour>
    <contour>
      <point x="132" y="707" type="line"/>
      <point x="150" y="707" type="line"/>
      <point x="163" y="826" type="line"/>
      <point x="131" y="827" type="line"/>
    </contour>
    <contour>
      <point x="142" y="520" type="move" name="_top"/>
    </contour>
  </outline>
</glyph>
<glyph name="kappa" format="1">
  <advance width="481"/>
  <unicode hex="03BA"/>
  <outline>
    <contour>
      <point x="415" y="530" type="line"/>
      <point x="155" y="269" type="line"/>
      <point x="392" y="34" type="line" smooth="yes"/>
      <point x="416" y="10"/>
      <point x="430" y="-4"/>
      <point x="457" y="-8" type="curve"/>
      <point x="466" y="16" type="line"/>
      <point x="446" y="21"/>
      <point x="434" y="32"/>
      <point x="413" y="52" type="curve" smooth="yes"/>
      <point x="193" y="270" type="line"/>
      <point x="439" y="517" type="line"/>
    </contour>
    <contour>
      <point x="95" y="521" type="line"/>
      <point x="107" y="481"/>
      <point x="117" y="432"/>
      <point x="117" y="354" type="curve" smooth="yes"/>
      <point x="117" y="0" type="line"/>
      <point x="147" y="0" type="line"/>
      <point x="147" y="349" type="line" smooth="yes"/>
      <point x="147" y="450"/>
      <point x="135" y="486"/>
      <point x="124" y="525" type="curve"/>
    </contour>
    <contour>
      <point x="241" y="520" type="move" name="top"/>
    </contour>
    <contour>
      <point x="241" y="0" type="move" name="bottom"/>
    </contour>
  </outline>
</glyph>
<glyph name="tau" format="1">
  <advance width="437"/>
  <unicode hex="03C4"/>
  <outline>
    <contour>
      <point x="275" y="21" type="line"/>
      <point x="241" y="34"/>
      <point x="227" y="54"/>
      <point x="227" y="110" type="curve" smooth="yes"/>
      <point x="227" y="499" type="line"/>
      <point x="197" y="499" type="line"/>
      <point x="197" y="110" type="line" smooth="yes"/>
      <point x="197" y="43"/>
      <point x="215" y="13"/>
      <point x="266" y="-5" type="curve"/>
    </contour>
    <contour>
      <point x="38" y="490"/>
      <point x="52" y="491"/>
      <point x="86" y="491" type="curve" smooth="yes"/>
      <point x="424" y="491" type="line"/>
      <point x="424" y="520" type="line"/>
      <point x="82" y="520" type="line" smooth="yes"/>
      <point x="50" y="520"/>
      <point x="29" y="518"/>
      <point x="5" y="508" type="curve"/>
      <point x="13" y="482" type="line"/>
    </contour>
    <contour>
      <point x="216" y="520" type="move" name="top"/>
    </contour>
    <contour>
      <point x="216" y="0" type="move" name="bottom"/>
    </contour>
  </outline>
</glyph>
<glyph name="uni03DE" format="1">
  <advance width="437"/>
  <unicode hex="03DE"/>
  <outline>
    <contour>
      <point x="215" y="0" type="line"/>
      <point x="407" y="330" type="line"/>
      <point x="374" y="336" type="line"/>
      <point x="178" y="0" type="line"/>
    </contour>
    <contour>
      <point x="407" y="330" type="line"/>
      <point x="397" y="360" type="line"/>
      <point x="30" y="360" type="line"/>
      <point x="40" y="330" type="line"/>
    </contour>
    <contour>
      <point x="257" y="682" type="line"/>
      <point x="220" y="682" type="line"/>
      <point x="30" y="360" type="line"/>
      <point x="63" y="354" type="line"/>
    </contour>
    <contour>
      <point x="216" y="682" type="move" name="top"/>
    </contour>
    <contour>
      <point x="216" y="0" type="move" name="bottom"/>
    </contour>
  </outline>
</glyph>
<glyph name="uni042D" format="1">
  <advance width="518"/>
  <unicode hex="042D"/>
  <outline>
    <contour>
      <point x="158" y="692"/>
      <point x="100" y="670"/>
      <point x="45" y="627" type="curve"/>
      <point x="62" y="605" type="line"/>
      <point x="123" y="648"/>
      <point x="167" y="663"/>
      <point x="232" y="663" type="curve" smooth="yes"/>
      <point x="332" y="663"/>
      <point x="407" y="590"/>
      <point x="412" y="352" type="curve"/>
      <point x="412" y="341" type="line"/>
      <point x="412" y="130"/>
      <point x="341" y="20"/>
      <point x="206" y="20" type="curve"/>
      <point x="133" y="20"/>
      <point x="90" y="46"/>
      <point x="44" y="83" type="curve"/>
      <point x="25" y="61" type="line"/>
      <point x="69" y="24"/>
      <point x="122" y="-10"/>
      <point x="207" y="-10" type="curve"/>
      <point x="363" y="-10"/>
      <point x="443" y="115"/>
      <point x="443" y="341" type="curve" smooth="yes"/>
      <point x="443" y="608"/>
      <point x="351" y="692"/>
      <point x="233" y="692" type="curve" smooth="yes"/>
    </contour>
    <contour>
      <point x="121" y="370" type="line"/>
      <point x="121" y="341" type="line"/>
      <point x="418" y="341" type="line"/>
      <point x="418" y="370" type="line"/>
    </contour>
    <contour>
      <point x="211" y="682" type="move" name="top"/>
    </contour>
    <contour>
      <point x="254" y="0" type="move" name="bottom"/>
    </contour>
  </outline>
</glyph>
<glyph name="uni0432" format="1">
  <advance width="538"/>
  <unicode hex="0432"/>
  <outline>
    <contour>
      <point x="213" y="530"/>
      <point x="160" y="523"/>
      <point x="115" y="515" type="curve"/>
      <point x="115" y="0" type="line"/>
      <point x="264" y="0" type="line" smooth="yes"/>
      <point x="391" y="0"/>
      <point x="468" y="56"/>
      <point x="468" y="153" type="curve" smooth="yes"/>
      <point x="468" y="235"/>
      <point x="417" y="276"/>
      <point x="342" y="282" type="curve"/>
      <point x="399" y="293"/>
      <point x="438" y="333"/>
      <point x="438" y="395" type="curve" smooth="yes"/>
      <point x="438" y="472"/>
      <point x="383" y="530"/>
      <point x="262" y="530" type="curve" smooth="yes"/>
    </contour>
    <contour>
      <point x="369" y="503"/>
      <point x="408" y="456"/>
      <point x="408" y="395" type="curve" smooth="yes"/>
      <point x="408" y="331"/>
      <point x="364" y="293"/>
      <point x="290" y="293" type="curve" smooth="yes"/>
      <point x="138" y="293" type="line"/>
      <point x="138" y="266" type="line"/>
      <point x="297" y="266" type="line" smooth="yes"/>
      <point x="388" y="266"/>
      <point x="437" y="230"/>
      <point x="437" y="152" type="curve" smooth="yes"/>
      <point x="437" y="66"/>
      <point x="365" y="27"/>
      <point x="264" y="27" type="curve" smooth="yes"/>
      <point x="145" y="27" type="line"/>
      <point x="145" y="493" type="line"/>
      <point x="182" y="499"/>
      <point x="217" y="503"/>
      <point x="263" y="503" type="curve" smooth="yes"/>
    </contour>
    <contour>
      <point x="265" y="520" type="move" name="top"/>
    </contour>
    <contour>
      <point x="267" y="0" type="move" name="bottom"/>
    </contour>
  </outline>
</glyph>
<glyph name="uni043B" format="1">
  <advance width="562"/>
  <unicode hex="043B"/>
  <outline>
    <contour>
      <point x="173" y="492" type="line"/>
      <point x="417" y="492" type="line"/>
      <point x="417" y="0" type="line"/>
      <point x="447" y="0" type="line"/>
      <point x="447" y="520" type="line"/>
      <point x="154" y="520" type="line"/>
    </contour>
    <contour>
      <point x="154" y="520" type="line"/>
      <point x="136" y="286" type="line" smooth="yes"/>
      <point x="120" y="80"/>
      <point x="115" y="41"/>
      <point x="52" y="19" type="curve"/>
      <point x="61" y="-6" type="line"/>
      <point x="146" y="23"/>
      <point x="149" y="68"/>
      <point x="166" y="284" type="curve" smooth="yes"/>
      <point x="182" y="495" type="line"/>
    </contour>
    <contour>
      <point x="281" y="520" type="move" name="top"/>
    </contour>
    <contour>
      <point x="281" y="0" type="move" name="bottom"/>
    </contour>
    <contour>
      <point x="457" y="0" type="move" name="bottomright"/>
    </contour>
  </outline>
</glyph>
<glyph name="uni044A" format="1">
  <advance width="571"/>
  <unicode hex="044A"/>
  <outline>
    <contour>
      <point x="225" y="520" type="line"/>
      <point x="10" y="520" type="line"/>
      <point x="10" y="492" type="line"/>
      <point x="195" y="492" type="line"/>
    </contour>
    <component base="uni044C" xOffset="80"/>
  </outline>
</glyph>
<glyph name="uni044D" format="1">
  <advance width="468"/>
  <unicode hex="044D"/>
  <outline>
    <contour>
      <point x="155" y="530"/>
      <point x="108" y="510"/>
      <point x="64" y="477" type="curve"/>
      <point x="80" y="455" type="line"/>
      <point x="121" y="484"/>
      <point x="160" y="502"/>
      <point x="219" y="502" type="curve" smooth="yes"/>
      <point x="303" y="502"/>
      <point x="366" y="446"/>
      <point x="367" y="266" type="curve"/>
      <point x="367" y="258" type="line"/>
      <point x="366" y="103"/>
      <point x="312" y="18"/>
      <point x="201" y="18" type="curve" smooth="yes"/>
      <point x="137" y="18"/>
      <point x="98" y="41"/>
      <point x="62" y="69" type="curve"/>
      <point x="45" y="48" type="line"/>
      <point x="86" y="16"/>
      <point x="130" y="-10"/>
      <point x="206" y="-10" type="curve" smooth="yes"/>
      <point x="329" y="-10"/>
      <point x="398" y="92"/>
      <point x="398" y="264" type="curve" smooth="yes"/>
      <point x="398" y="458"/>
      <point x="327" y="530"/>
      <point x="218" y="530" type="curve" smooth="yes"/>
    </contour>
    <contour>
      <point x="118" y="283" type="line"/>
      <point x="118" y="256" type="line"/>
      <point x="372" y="256" type="line"/>
      <point x="372" y="283" type="line"/>
    </contour>
    <contour>
      <point x="216" y="520" type="move" name="top"/>
    </contour>
    <contour>
      <point x="234" y="0" type="move" name="bottom"/>
    </contour>
  </outline>
</glyph>
<glyph name="uni0466" format="1">
  <advance width="566"/>
  <unicode hex="0466"/>
  <outline>
    <contour>
      <point x="264" y="682" type="line"/>
      <point x="25" y="0" type="line"/>
      <point x="56" y="0" type="line"/>
      <point x="283" y="657" type="line"/>
      <point x="508" y="0" type="line"/>
      <point x="541" y="0" type="line"/>
      <point x="302" y="682" type="line"/>
    </contour>
    <contour>
      <point x="168" y="362" type="line"/>
      <point x="157" y="333" type="line"/>
      <point x="409" y="333" type="line"/>
      <point x="399" y="362" type="line"/>
    </contour>
    <contour>
      <point x="269" y="344" type="line"/>
      <point x="268" y="0" type="line"/>
      <point x="298" y="0" type="line"/>
      <point x="298" y="344" type="line"/>
    </contour>
    <contour>
      <point x="283" y="682" type="move" name="top"/>
    </contour>
    <contour>
      <point x="283" y="0" type="move" name="bottom"/>
    </contour>
  </outline>
</glyph>
<glyph name="uni0491" format="1">
  <advance width="418"/>
  <unicode hex="0491"/>
  <outline>
    <contour>
      <point x="408" y="520" type="line"/>
      <point x="408" y="629" type="line"/>
      <point x="379" y="629" type="line"/>
      <point x="379" y="510" type="line"/>
    </contour>
    <component base="uni0433"/>
  </outline>
</glyph>
<glyph name="uni0493" format="1">
  <advance width="420"/>
  <unicode hex="0493"/>
  <outline>
    <contour>
      <point x="117" y="298" type="line"/>
      <point x="50" y="298" type="line"/>
      <point x="50" y="271" type="line"/>
      <point x="281" y="271" type="line"/>
      <point x="281" y="298" type="line"/>
    </contour>
    <component base="uni0433" xOffset="2"/>
  </outline>
</glyph>
<glyph name="uni04A1" format="1">
  <advance width="530"/>
  <unicode hex="04A1"/>
  <outline>
    <contour>
      <point x="193" y="520" type="line"/>
      <point x="10" y="520" type="line"/>
      <point x="10" y="492" type="line"/>
      <point x="163" y="492" type="line"/>
    </contour>
    <component base="uni043A" xOffset="48"/>
  </outline>
</glyph>
<glyph name="uni04A4" format="1">
  <advance width="765"/>
  <unicode hex="04A4"/>
  <outline>
    <contour>
      <point x="542" y="652" type="line"/>
      <point x="750" y="652" type="line"/>
      <point x="755" y="682" type="line"/>
      <point x="511" y="682" type="line"/>
    </contour>
    <component base="H"/>
  </outline>
</glyph>
<glyph name="uni04B0" format="1">
  <advance width="500"/>
  <unicode hex="04B0"/>
  <outline>
    <contour>
      <point x="114" y="288" type="line"/>
      <point x="114" y="259" type="line"/>
      <point x="236" y="259" type="line"/>
      <point x="267" y="259" type="line"/>
      <point x="389" y="259" type="line"/>
      <point x="389" y="288" type="line"/>
    </contour>
    <component base="Y"/>
  </outline>
</glyph>
<glyph name="uni04B1" format="1">
  <advance width="452"/>
  <unicode hex="04B1"/>
  <outline>
    <contour>
      <point x="245" y="5" type="line"/>
      <point x="351" y="5" type="line"/>
      <point x="351" y="32" type="line"/>
      <point x="110" y="32" type="line"/>
      <point x="110" y="5" type="line"/>
      <point x="216" y="5" type="line"/>
    </contour>
    <component base="uni04AF"/>
  </outline>
</glyph>
<glyph name="uni04B5" format="1">
  <advance width="654"/>
  <unicode hex="04B5"/>
  <outline>
    <contour>
      <point x="10" y="520" type="line"/>
      <point x="10" y="492" type="line"/>
      <point x="195" y="492" type="line"/>
      <point x="225" y="492" type="line"/>
      <point x="404" y="492" type="line"/>
      <point x="408" y="520" type="line"/>
    </contour>
    <contour>
      <point x="509" y="28" type="line"/>
      <point x="225" y="28" type="line"/>
      <point x="225" y="520" type="line"/>
      <point x="195" y="520" type="line"/>
      <point x="195" y="0" type="line"/>
      <point x="539" y="0" type="line"/>
      <point x="539" y="520" type="line"/>
      <point x="509" y="520" type="line"/>
    </contour>
    <component base="descStraightcy" xOffset="505"/>
    <contour>
      <point x="330" y="520" type="move" name="top"/>
    </contour>
    <contour>
      <point x="330" y="-193" type="move" name="bottom"/>
    </contour>
    <contour>
      <point x="549" y="0" type="move" name="bottomright"/>
    </contour>
  </outline>
</glyph>
<glyph name="uni04B8" format="1">
  <advance width="579"/>
  <unicode hex="04B8"/>
  <outline>
    <contour>
      <point x="240" y="517" type="line"/>
      <point x="240" y="115" type="line"/>
      <point x="270" y="115" type="line"/>
      <point x="270" y="517" type="line"/>
    </contour>
    <component base="uni0427"/>
  </outline>
</glyph>
<glyph name="uni0504" format="1">
  <advance width="752"/>
  <unicode hex="0504"/>
  <outline>
    <contour>
      <point x="50" y="682" type="line"/>
      <point x="50" y="653" type="line"/>
      <point x="170" y="653" type="line" smooth="yes"/>
      <point x="317" y="653"/>
      <point x="370" y="599"/>
      <point x="370" y="503" type="curve" smooth="yes"/>
      <point x="370" y="397"/>
      <point x="300" y="349"/>
      <point x="180" y="349" type="curve" smooth="yes"/>
      <point x="74" y="349" type="line"/>
      <point x="74" y="320" type="line"/>
      <point x="216" y="320" type="line"/>
      <point x="326" y="336"/>
      <point x="402" y="385"/>
      <point x="402" y="503" type="curve" smooth="yes"/>
      <point x="402" y="618"/>
      <point x="333" y="682"/>
      <point x="174" y="682" type="curve" smooth="yes"/>
    </contour>
    <contour>
      <point x="643" y="380" type="line"/>
      <point x="647" y="343"/>
      <point x="649" y="304"/>
      <point x="649" y="265" type="curve" smooth="yes"/>
      <point x="649" y="76"/>
      <point x="580" y="18"/>
      <point x="504" y="18" type="curve" smooth="yes"/>
      <point x="437" y="18"/>
      <point x="400" y="53"/>
      <point x="354" y="135" type="curve" smooth="yes"/>
      <point x="243" y="332" type="line"/>
      <point x="209" y="327" type="line"/>
      <point x="328" y="118" type="line" smooth="yes"/>
      <point x="376" y="32"/>
      <point x="423" y="-10"/>
      <point x="504" y="-10" type="curve" smooth="yes"/>
      <point x="606" y="-10"/>
      <point x="680" y="73"/>
      <point x="680" y="265" type="curve" smooth="yes"/>
      <point x="680" y="304"/>
      <point x="678" y="343"/>
      <point x="674" y="380" type="curve"/>
    </contour>
    <contour>
      <point x="371" y="682" type="move" name="top"/>
    </contour>
    <contour>
      <point x="371" y="0" type="move" name="bottom"/>
    </contour>
  </outline>
</glyph>
<glyph name="uni0506" format="1">
  <advance width="452"/>
  <unicode hex="0506"/>
  <outline>
    <contour>
      <point x="50" y="682" type="line"/>
      <point x="50" y="653" type="line"/>
      <point x="170" y="653" type="line" smooth="yes"/>
      <point x="317" y="653"/>
      <point x="370" y="599"/>
      <point x="370" y="503" type="curve" smooth="yes"/>
      <point x="370" y="397"/>
      <point x="300" y="349"/>
      <point x="180" y="349" type="curve" smooth="yes"/>
      <point x="74" y="349" type="line"/>
      <point x="74" y="320" type="line"/>
      <point x="216" y="320" type="line"/>
      <point x="326" y="336"/>
      <point x="402" y="385"/>
      <point x="402" y="503" type="curve" smooth="yes"/>
      <point x="402" y="618"/>
      <point x="333" y="682"/>
      <point x="174" y="682" type="curve" smooth="yes"/>
    </contour>
    <contour>
      <point x="209" y="327" type="line"/>
      <point x="398" y="0" type="line"/>
      <point x="437" y="0" type="line"/>
      <point x="243" y="332" type="line"/>
    </contour>
    <component base="descStraightcy.case" xOffset="370"/>
    <contour>
      <point x="227" y="682" type="move" name="top"/>
    </contour>
    <contour>
      <point x="227" y="-193" type="move" name="bottom"/>
    </contour>
  </outline>
</glyph>
<glyph name="uni0507" format="1">
  <advance width="381"/>
  <unicode hex="0507"/>
  <outline>
    <contour>
      <point x="180" y="228" type="line"/>
      <point x="271" y="241"/>
      <point x="336" y="284"/>
      <point x="336" y="373" type="curve" smooth="yes"/>
      <point x="336" y="467"/>
      <point x="274" y="520"/>
      <point x="137" y="520" type="curve" smooth="yes"/>
      <point x="40" y="520" type="line"/>
      <point x="40" y="492" type="line"/>
      <point x="134" y="492" type="line" smooth="yes"/>
      <point x="259" y="492"/>
      <point x="305" y="450"/>
      <point x="305" y="373" type="curve" smooth="yes"/>
      <point x="305" y="296"/>
      <point x="247" y="255"/>
      <point x="142" y="255" type="curve" smooth="yes"/>
      <point x="78" y="255" type="line"/>
      <point x="78" y="228" type="line"/>
    </contour>
    <contour>
      <point x="159" y="247" type="line"/>
      <point x="321" y="0" type="line"/>
      <point x="357" y="0" type="line"/>
      <point x="190" y="252" type="line"/>
    </contour>
    <component base="descStraightcy" xOffset="300"/>
    <contour>
      <point x="195" y="520" type="move" name="top"/>
    </contour>
    <contour>
      <point x="195" y="-193" type="move" name="bottom"/>
    </contour>
  </outline>
</glyph>
<glyph name="uni0514" format="1">
  <advance width="765"/>
  <unicode hex="0514"/>
  <outline>
    <contour>
      <point x="342" y="653" type="line"/>
      <point x="342" y="682" type="line"/>
      <point x="181" y="682" type="line"/>
      <point x="197" y="653" type="line"/>
    </contour>
    <contour>
      <point x="131" y="290" type="line" smooth="yes"/>
      <point x="105" y="84"/>
      <point x="103" y="43"/>
      <point x="41" y="20" type="curve"/>
      <point x="50" y="-6" type="line"/>
      <point x="134" y="24"/>
      <point x="135" y="75"/>
      <point x="162" y="288" type="curve" smooth="yes"/>
      <point x="209" y="657" type="line"/>
      <point x="181" y="682" type="line"/>
    </contour>
    <component base="X" xOffset="272"/>
    <contour>
      <point x="371" y="682" type="move" name="top"/>
    </contour>
    <contour>
      <point x="371" y="0" type="move" name="bottom"/>
    </contour>
  </outline>
</glyph>
<glyph name="uni0515" format="1">
  <advance width="656"/>
  <unicode hex="0515"/>
  <outline>
    <contour>
      <point x="173" y="493" type="line"/>
      <point x="294" y="493" type="line"/>
      <point x="294" y="520" type="line"/>
      <point x="154" y="520" type="line"/>
    </contour>
    <contour>
      <point x="154" y="520" type="line"/>
      <point x="136" y="286" type="line" smooth="yes"/>
      <point x="120" y="80"/>
      <point x="115" y="41"/>
      <point x="52" y="19" type="curve"/>
      <point x="61" y="-6" type="line"/>
      <point x="146" y="23"/>
      <point x="150" y="68"/>
      <point x="166" y="284" type="curve" smooth="yes"/>
      <point x="182" y="495" type="line"/>
    </contour>
    <component base="x" xOffset="219"/>
    <contour>
      <point x="366" y="520" type="move" name="top"/>
    </contour>
    <contour>
      <point x="366" y="0" type="move" name="bottom"/>
    </contour>
  </outline>
</glyph>
<glyph name="uni0E3F" format="1">
  <advance width="577"/>
  <unicode hex="0E3F"/>
  <outline>
    <contour>
      <point x="279" y="10" type="line"/>
      <point x="279" y="-147" type="line"/>
      <point x="306" y="-147" type="line"/>
      <point x="306" y="11" type="line"/>
    </contour>
    <contour>
      <point x="279" y="814" type="line"/>
      <point x="279" y="654" type="line"/>
      <point x="306" y="654" type="line"/>
      <point x="306" y="814" type="line"/>
    </contour>
    <contour>
      <point x="120" y="662" type="line"/>
      <point x="120" y="0" type="line"/>
      <point x="299" y="0" type="line" smooth="yes"/>
      <point x="438" y="0"/>
      <point x="517" y="65"/>
      <point x="517" y="179" type="curve" smooth="yes"/>
      <point x="517" y="295"/>
      <point x="447" y="346"/>
      <point x="365" y="351" type="curve"/>
      <point x="438" y="364"/>
      <point x="484" y="409"/>
      <point x="484" y="498" type="curve" smooth="yes"/>
      <point x="484" y="607"/>
      <point x="402" y="662"/>
      <point x="260" y="662" type="curve" smooth="yes"/>
    </contour>
    <contour>
      <point x="385" y="633"/>
      <point x="453" y="591"/>
      <point x="453" y="497" type="curve" smooth="yes"/>
      <point x="453" y="413"/>
      <point x="397" y="363"/>
      <point x="311" y="363" type="curve" smooth="yes"/>
      <point x="144" y="363" type="line"/>
      <point x="144" y="336" type="line"/>
      <point x="316" y="336" type="line" smooth="yes"/>
      <point x="415" y="336"/>
      <point x="486" y="286"/>
      <point x="486" y="179" type="curve" smooth="yes"/>
      <point x="486" y="79"/>
      <point x="416" y="28"/>
      <point x="300" y="28" type="curve" smooth="yes"/>
      <point x="150" y="28" type="line"/>
      <point x="150" y="633" type="line"/>
      <point x="264" y="633" type="line" smooth="yes"/>
    </contour>
  </outline>
</glyph>
<glyph name="uni1DC6" format="1">
  <advance width="371"/>
  <unicode hex="1DC6"/>
  <outline>
    <component base="uni1DC7" xOffset="371" xScale="-1"/>
    <contour>
      <point x="188" y="725" type="move" name="top"/>
    </contour>
    <contour>
      <point x="186" y="520" type="move" name="_top"/>
    </contour>
  </outline>
</glyph>
<glyph name="uni1FFD" format="1">
  <advance width="127"/>
  <unicode hex="1FFD"/>
  <outline>
    <contour>
      <point x="30" y="608" type="line"/>
      <point x="51" y="604" type="line"/>
      <point x="97" y="735" type="line"/>
      <point x="62" y="743" type="line"/>
    </contour>
    <contour>
      <point x="40" y="520" type="move" name="_top"/>
    </contour>
  </outline>
</glyph>
<glyph name="colonmonetary" format="1">
  <advance width="528"/>
  <unicode hex="20A1"/>
  <outline>
    <contour>
      <point x="151" y="-147" type="line"/>
      <point x="181" y="-147" type="line"/>
      <point x="381" y="814" type="line"/>
      <point x="351" y="814" type="line"/>
    </contour>
    <contour>
      <point x="240" y="-147" type="line"/>
      <point x="270" y="-147" type="line"/>
      <point x="470" y="814" type="line"/>
      <point x="440" y="814" type="line"/>
    </contour>
    <contour>
      <point x="192" y="674"/>
      <point x="75" y="563"/>
      <point x="75" y="331" type="curve" smooth="yes"/>
      <point x="75" y="109"/>
      <point x="186" y="-10"/>
      <point x="334" y="-10" type="curve" smooth="yes"/>
      <point x="409" y="-10"/>
      <point x="461" y="16"/>
      <point x="503" y="53" type="curve"/>
      <point x="485" y="76" type="line"/>
      <point x="445" y="43"/>
      <point x="407" y="19"/>
      <point x="335" y="19" type="curve" smooth="yes"/>
      <point x="208" y="19"/>
      <point x="106" y="122"/>
      <point x="106" y="331" type="curve" smooth="yes"/>
      <point x="106" y="554"/>
      <point x="211" y="646"/>
      <point x="339" y="646" type="curve" smooth="yes"/>
      <point x="399" y="646"/>
      <point x="434" y="631"/>
      <point x="479" y="596" type="curve"/>
      <point x="496" y="617" type="line"/>
      <point x="453" y="652"/>
      <point x="409" y="674"/>
      <point x="337" y="674" type="curve" smooth="yes"/>
    </contour>
  </outline>
</glyph>
<glyph name="uni20A6" format="1">
  <advance width="644"/>
  <unicode hex="20A6"/>
  <outline>
    <contour>
      <point x="50" y="299" type="line"/>
      <point x="50" y="271" type="line"/>
      <point x="594" y="271" type="line"/>
      <point x="594" y="299" type="line"/>
    </contour>
    <contour>
      <point x="50" y="391" type="line"/>
      <point x="50" y="363" type="line"/>
      <point x="594" y="363" type="line"/>
      <point x="594" y="391" type="line"/>
    </contour>
    <contour>
      <point x="499" y="662" type="line"/>
      <point x="499" y="225" type="line" smooth="yes"/>
      <point x="498" y="136"/>
      <point x="501" y="73"/>
      <point x="502" y="34" type="curve"/>
      <point x="154" y="662" type="line"/>
      <point x="116" y="662" type="line"/>
      <point x="116" y="0" type="line"/>
      <point x="146" y="0" type="line"/>
      <point x="146" y="425" type="line" smooth="yes"/>
      <point x="146" y="540"/>
      <point x="145" y="590"/>
      <point x="142" y="628" type="curve"/>
      <point x="491" y="0" type="line"/>
      <point x="528" y="0" type="line"/>
      <point x="528" y="662" type="line"/>
    </contour>
  </outline>
</glyph>
<glyph name="uni20A9" format="1">
  <advance width="784"/>
  <unicode hex="20A9"/>
  <outline>
    <contour>
      <point x="56" y="299" type="line"/>
      <point x="56" y="273" type="line"/>
      <point x="744" y="273" type="line"/>
      <point x="744" y="299" type="line"/>
    </contour>
    <contour>
      <point x="56" y="389" type="line"/>
      <point x="56" y="363" type="line"/>
      <point x="744" y="363" type="line"/>
      <point x="744" y="389" type="line"/>
    </contour>
    <contour>
      <point x="713" y="662" type="line"/>
      <point x="572" y="31" type="line"/>
      <point x="410" y="662" type="line"/>
      <point x="374" y="662" type="line"/>
      <point x="214" y="31" type="line"/>
      <point x="72" y="662" type="line"/>
      <point x="40" y="662" type="line"/>
      <point x="194" y="0" type="line"/>
      <point x="229" y="0" type="line"/>
      <point x="392" y="632" type="line"/>
      <point x="555" y="0" type="line"/>
      <point x="590" y="0" type="line"/>
      <point x="744" y="662" type="line"/>
    </contour>
  </outline>
</glyph>
<glyph name="uni20B4" format="1">
  <advance width="527"/>
  <unicode hex="20B4"/>
  <outline>
    <contour>
      <point x="194" y="674"/>
      <point x="146" y="646"/>
      <point x="94" y="604" type="curve"/>
      <point x="114" y="582" type="line"/>
      <point x="165" y="627"/>
      <point x="209" y="645"/>
      <point x="275" y="645" type="curve" smooth="yes"/>
      <point x="365" y="645"/>
      <point x="425" y="593"/>
      <point x="425" y="519" type="curve" smooth="yes"/>
      <point x="425" y="441"/>
      <point x="380" y="406"/>
      <point x="262" y="370" type="curve" smooth="yes"/>
      <point x="131" y="330"/>
      <point x="70" y="283"/>
      <point x="70" y="174" type="curve" smooth="yes"/>
      <point x="70" y="63"/>
      <point x="156" y="-10"/>
      <point x="276" y="-10" type="curve" smooth="yes"/>
      <point x="362" y="-10"/>
      <point x="424" y="22"/>
      <point x="477" y="71" type="curve"/>
      <point x="457" y="91" type="line"/>
      <point x="410" y="47"/>
      <point x="358" y="18"/>
      <point x="277" y="18" type="curve" smooth="yes"/>
      <point x="171" y="18"/>
      <point x="100" y="76"/>
      <point x="100" y="173" type="curve" smooth="yes"/>
      <point x="100" y="267"/>
      <point x="150" y="306"/>
      <point x="272" y="343" type="curve" smooth="yes"/>
      <point x="407" y="385"/>
      <point x="455" y="431"/>
      <point x="455" y="519" type="curve" smooth="yes"/>
      <point x="455" y="607"/>
      <point x="383" y="674"/>
      <point x="275" y="674" type="curve" smooth="yes"/>
    </contour>
    <contour>
      <point x="50" y="299" type="line"/>
      <point x="50" y="271" type="line"/>
      <point x="462" y="271" type="line"/>
      <point x="462" y="299" type="line"/>
    </contour>
    <contour>
      <point x="50" y="391" type="line"/>
      <point x="50" y="363" type="line"/>
      <point x="462" y="363" type="line"/>
      <point x="462" y="391" type="line"/>
    </contour>
  </outline>
</glyph>
<glyph name="uni20B9" format="1">
  <advance width="517"/>
  <unicode hex="20B9"/>
  <outline>
    <contour>
      <point x="212" y="290" type="line"/>
      <point x="322" y="306"/>
      <point x="398" y="355"/>
      <point x="398" y="478" type="curve" smooth="yes"/>
      <point x="398" y="560"/>
      <point x="366" y="615"/>
      <point x="295" y="635" type="curve"/>
      <point x="487" y="635" type="line"/>
      <point x="487" y="662" type="line"/>
      <point x="70" y="662" type="line"/>
      <point x="70" y="635" type="line"/>
      <point x="166" y="635" type="line" smooth="yes"/>
      <point x="313" y="635"/>
      <point x="366" y="579"/>
      <point x="366" y="478" type="curve" smooth="yes"/>
      <point x="366" y="367"/>
      <point x="296" y="319"/>
      <point x="176" y="319" type="curve" smooth="yes"/>
      <point x="70" y="319" type="line"/>
      <point x="70" y="290" type="line"/>
    </contour>
    <contour>
      <point x="433" y="0" type="line"/>
      <point x="239" y="302" type="line"/>
      <point x="205" y="297" type="line"/>
      <point x="394" y="0" type="line"/>
    </contour>
    <contour>
      <point x="487" y="494" type="line"/>
      <point x="487" y="521" type="line"/>
      <point x="70" y="521" type="line"/>
      <point x="70" y="494" type="line"/>
    </contour>
  </outline>
</glyph>
<glyph name="uni2116" format="1">
  <advance width="1084"/>
  <unicode hex="2116"/>
  <outline>
    <contour>
      <point x="729" y="682"/>
      <point x="661" y="607"/>
      <point x="661" y="479" type="curve" smooth="yes"/>
      <point x="661" y="352"/>
      <point x="726" y="276"/>
      <point x="831" y="276" type="curve" smooth="yes"/>
      <point x="935" y="276"/>
      <point x="1003" y="351"/>
      <point x="1003" y="481" type="curve" smooth="yes"/>
      <point x="1003" y="613"/>
      <point x="937" y="682"/>
      <point x="832" y="682" type="curve" smooth="yes"/>
    </contour>
    <contour>
      <point x="921" y="654"/>
      <point x="972" y="595"/>
      <point x="972" y="481" type="curve" smooth="yes"/>
      <point x="972" y="364"/>
      <point x="918" y="304"/>
      <point x="832" y="304" type="curve" smooth="yes"/>
      <point x="746" y="304"/>
      <point x="693" y="366"/>
      <point x="693" y="479" type="curve" smooth="yes"/>
      <point x="693" y="596"/>
      <point x="748" y="654"/>
      <point x="833" y="654" type="curve" smooth="yes"/>
    </contour>
    <component base="N"/>
    <component base="minus" xOffset="587" yOffset="-316"/>
  </outline>
</glyph>
<glyph name="notequal" format="1">
  <advance width="488"/>
  <unicode hex="2260"/>
  <outline>
    <contour>
      <point x="108" y="124" type="line"/>
      <point x="131" y="111" type="line"/>
      <point x="380" y="530" type="line"/>
      <point x="357" y="543" type="line"/>
    </contour>
    <component base="equal"/>
  </outline>
</glyph>
<glyph name="uni25AF" format="1">
  <advance width="589"/>
  <unicode hex="25AF"/>
  <outline>
    <contour>
      <point x="96" y="689" type="line"/>
      <point x="96" y="0" type="line"/>
      <point x="493" y="0" type="line"/>
      <point x="493" y="689" type="line"/>
    </contour>
    <contour>
      <point x="401" y="92" type="line"/>
      <point x="188" y="92" type="line"/>
      <point x="188" y="597" type="line"/>
      <point x="401" y="597" type="line"/>
    </contour>
  </outline>
</glyph>
<glyph name="uni2999" format="1">
  <advance width="246"/>
  <unicode hex="2999"/>
  <outline>
    <contour>
      <point x="164" y="237"/>
      <point x="196" y="269"/>
      <point x="196" y="310" type="curve" smooth="yes"/>
      <point x="196" y="350"/>
      <point x="164" y="383"/>
      <point x="123" y="383" type="curve" smooth="yes"/>
      <point x="83" y="383"/>
      <point x="50" y="350"/>
      <point x="50" y="310" type="curve" smooth="yes"/>
      <point x="50" y="269"/>
      <point x="83" y="237"/>
      <point x="123" y="237" type="curve" smooth="yes"/>
    </contour>
    <contour>
      <point x="164" y="-355"/>
      <point x="196" y="-323"/>
      <point x="196" y="-282" type="curve" smooth="yes"/>
      <point x="196" y="-242"/>
      <point x="164" y="-209"/>
      <point x="123" y="-209" type="curve" smooth="yes"/>
      <point x="83" y="-209"/>
      <point x="50" y="-242"/>
      <point x="50" y="-282" type="curve" smooth="yes"/>
      <point x="50" y="-323"/>
      <point x="83" y="-355"/>
      <point x="123" y="-355" type="curve" smooth="yes"/>
    </contour>
    <contour>
      <point x="164" y="829"/>
      <point x="196" y="861"/>
      <point x="196" y="902" type="curve" smooth="yes"/>
      <point x="196" y="942"/>
      <point x="164" y="975"/>
      <point x="123" y="975" type="curve" smooth="yes"/>
      <point x="83" y="975"/>
      <point x="50" y="942"/>
      <point x="50" y="902" type="curve" smooth="yes"/>
      <point x="50" y="861"/>
      <point x="83" y="829"/>
      <point x="123" y="829" type="curve" smooth="yes"/>
    </contour>
    <contour>
      <point x="164" y="533"/>
      <point x="196" y="565"/>
      <point x="196" y="606" type="curve" smooth="yes"/>
      <point x="196" y="646"/>
      <point x="164" y="679"/>
      <point x="123" y="679" type="curve" smooth="yes"/>
      <point x="83" y="679"/>
      <point x="50" y="646"/>
      <point x="50" y="606" type="curve" smooth="yes"/>
      <point x="50" y="565"/>
      <point x="83" y="533"/>
      <point x="123" y="533" type="curve" smooth="yes"/>
    </contour>
    <contour>
      <point x="164" y="-59"/>
      <point x="196" y="-27"/>
      <point x="196" y="14" type="curve" smooth="yes"/>
      <point x="196" y="54"/>
      <point x="164" y="87"/>
      <point x="123" y="87" type="curve" smooth="yes"/>
      <point x="83" y="87"/>
      <point x="50" y="54"/>
      <point x="50" y="14" type="curve" smooth="yes"/>
      <point x="50" y="-27"/>
      <point x="83" y="-59"/>
      <point x="123" y="-59" type="curve" smooth="yes"/>
    </contour>
    <contour>
      <point x="164" y="1119"/>
      <point x="196" y="1151"/>
      <point x="196" y="1192" type="curve" smooth="yes"/>
      <point x="196" y="1232"/>
      <point x="164" y="1265"/>
      <point x="123" y="1265" type="curve" smooth="yes"/>
      <point x="83" y="1265"/>
      <point x="50" y="1232"/>
      <point x="50" y="1192" type="curve" smooth="yes"/>
      <point x="50" y="1151"/>
      <point x="83" y="1119"/>
      <point x="123" y="1119" type="curve" smooth="yes"/>
    </contour>
  </outline>
</glyph>
<glyph name="uni2B07" format="1">
  <advance width="720"/>
  <unicode hex="2B07"/>
  <outline>
    <contour>
      <point x="279" y="750" type="line" smooth="yes"/>
      <point x="249" y="750"/>
      <point x="229" y="730"/>
      <point x="229" y="700" type="curve" smooth="yes"/>
      <point x="229" y="204" type="line"/>
      <point x="60" y="204" type="line"/>
      <point x="360" y="-94" type="line"/>
      <point x="660" y="204" type="line"/>
      <point x="491" y="204" type="line"/>
      <point x="491" y="700" type="line" smooth="yes"/>
      <point x="491" y="730"/>
      <point x="471" y="750"/>
      <point x="441" y="750" type="curve"/>
    </contour>
  </outline>
</glyph>
<glyph name="u1F310" format="1">
  <advance width="1214"/>
  <unicode hex="1F310"/>
  <outline>
    <contour>
      <point x="876" y="-201"/>
      <point x="1092" y="17"/>
      <point x="1092" y="285" type="curve" smooth="yes"/>
      <point x="1092" y="553"/>
      <point x="876" y="771"/>
      <point x="607" y="771" type="curve" smooth="yes"/>
      <point x="337" y="771"/>
      <point x="122" y="553"/>
      <point x="122" y="285" type="curve" smooth="yes"/>
      <point x="122" y="17"/>
      <point x="337" y="-201"/>
      <point x="607" y="-201" type="curve" smooth="yes"/>
    </contour>
    <contour>
      <point x="435" y="-165"/>
      <point x="324" y="-102"/>
      <point x="249" y="-9" type="curve"/>
      <point x="297" y="25"/>
      <point x="343" y="50"/>
      <point x="393" y="67" type="curve"/>
      <point x="430" y="-32"/>
      <point x="490" y="-119"/>
      <point x="562" y="-177" type="curve"/>
    </contour>
    <contour>
      <point x="180" y="83"/>
      <point x="148" y="175"/>
      <point x="145" y="274" type="curve"/>
      <point x="353" y="274" type="line"/>
      <point x="354" y="210"/>
      <point x="366" y="147"/>
      <point x="385" y="88" type="curve"/>
      <point x="334" y="69"/>
      <point x="284" y="43"/>
      <point x="235" y="9" type="curve"/>
    </contour>
    <contour>
      <point x="519" y="-122"/>
      <point x="453" y="-31"/>
      <point x="415" y="75" type="curve"/>
      <point x="471" y="92"/>
      <point x="529" y="100"/>
      <point x="595" y="101" type="curve"/>
      <point x="595" y="-178" type="line"/>
    </contour>
    <contour>
      <point x="389" y="152"/>
      <point x="378" y="213"/>
      <point x="377" y="274" type="curve"/>
      <point x="595" y="274" type="line"/>
      <point x="595" y="123" type="line"/>
      <point x="526" y="122"/>
      <point x="465" y="113"/>
      <point x="407" y="96" type="curve"/>
    </contour>
    <contour>
      <point x="619" y="101" type="line"/>
      <point x="686" y="100"/>
      <point x="746" y="92"/>
      <point x="801" y="75" type="curve"/>
      <point x="762" y="-32"/>
      <point x="696" y="-124"/>
      <point x="619" y="-179" type="curve"/>
    </contour>
    <contour>
      <point x="148" y="395"/>
      <point x="180" y="487"/>
      <point x="235" y="561" type="curve"/>
      <point x="284" y="527"/>
      <point x="334" y="501"/>
      <point x="385" y="482" type="curve"/>
      <point x="366" y="423"/>
      <point x="354" y="360"/>
      <point x="353" y="296" type="curve"/>
      <point x="145" y="296" type="line"/>
    </contour>
    <contour>
      <point x="726" y="-118"/>
      <point x="786" y="-32"/>
      <point x="824" y="67" type="curve"/>
      <point x="872" y="50"/>
      <point x="919" y="25"/>
      <point x="967" y="-8" type="curve"/>
      <point x="892" y="-102"/>
      <point x="782" y="-164"/>
      <point x="655" y="-177" type="curve"/>
    </contour>
    <contour>
      <point x="378" y="357"/>
      <point x="389" y="418"/>
      <point x="407" y="474" type="curve"/>
      <point x="465" y="457"/>
      <point x="526" y="448"/>
      <point x="595" y="447" type="curve"/>
      <point x="595" y="296" type="line"/>
      <point x="377" y="296" type="line"/>
    </contour>
    <contour>
      <point x="750" y="113"/>
      <point x="689" y="122"/>
      <point x="619" y="123" type="curve"/>
      <point x="619" y="274" type="line"/>
      <point x="839" y="274" type="line"/>
      <point x="838" y="212"/>
      <point x="827" y="152"/>
      <point x="809" y="95" type="curve"/>
    </contour>
    <contour>
      <point x="343" y="520"/>
      <point x="297" y="545"/>
      <point x="249" y="579" type="curve"/>
      <point x="324" y="672"/>
      <point x="435" y="735"/>
      <point x="562" y="747" type="curve"/>
      <point x="490" y="689"/>
      <point x="430" y="602"/>
      <point x="393" y="503" type="curve"/>
    </contour>
    <contour>
      <point x="529" y="470"/>
      <point x="471" y="478"/>
      <point x="415" y="495" type="curve"/>
      <point x="453" y="601"/>
      <point x="519" y="692"/>
      <point x="595" y="748" type="curve"/>
      <point x="595" y="469" type="line"/>
    </contour>
    <contour>
      <point x="931" y="44"/>
      <point x="883" y="69"/>
      <point x="831" y="87" type="curve"/>
      <point x="850" y="147"/>
      <point x="862" y="209"/>
      <point x="863" y="274" type="curve"/>
      <point x="1069" y="274" type="line"/>
      <point x="1067" y="175"/>
      <point x="1034" y="84"/>
      <point x="981" y="10" type="curve"/>
    </contour>
    <contour>
      <point x="619" y="447" type="line"/>
      <point x="689" y="448"/>
      <point x="750" y="457"/>
      <point x="809" y="475" type="curve"/>
      <point x="827" y="418"/>
      <point x="838" y="358"/>
      <point x="839" y="296" type="curve"/>
      <point x="619" y="296" type="line"/>
    </contour>
    <contour>
      <point x="619" y="749" type="line"/>
      <point x="696" y="694"/>
      <point x="762" y="602"/>
      <point x="801" y="495" type="curve"/>
      <point x="746" y="478"/>
      <point x="686" y="470"/>
      <point x="619" y="469" type="curve"/>
    </contour>
    <contour>
      <point x="862" y="361"/>
      <point x="850" y="423"/>
      <point x="831" y="483" type="curve"/>
      <point x="883" y="501"/>
      <point x="931" y="526"/>
      <point x="981" y="560" type="curve"/>
      <point x="1034" y="486"/>
      <point x="1067" y="395"/>
      <point x="1069" y="296" type="curve"/>
      <point x="863" y="296" type="line"/>
    </contour>
    <contour>
      <point x="786" y="602"/>
      <point x="726" y="688"/>
      <point x="655" y="747" type="curve"/>
      <point x="782" y="734"/>
      <point x="892" y="672"/>
      <point x="967" y="578" type="curve"/>
      <point x="919" y="545"/>
      <point x="872" y="520"/>
      <point x="824" y="503" type="curve"/>
    </contour>
  </outline>
</glyph>
<glyph name="KsicyHELPER" format="1">
  <advance width="478"/>
  <outline>
    <contour>
      <point x="428" y="186" type="line"/>
      <point x="428" y="301"/>
      <point x="364" y="367"/>
      <point x="220" y="367" type="curve" smooth="yes"/>
      <point x="162" y="367" type="line"/>
      <point x="131" y="338" type="line"/>
      <point x="222" y="338" type="line" smooth="yes"/>
      <point x="334" y="338"/>
      <point x="396" y="294"/>
      <point x="396" y="185" type="curve"/>
    </contour>
    <contour>
      <point x="131" y="338" type="line"/>
      <point x="166" y="367" type="line"/>
      <point x="403" y="656" type="line"/>
      <point x="403" y="682" type="line"/>
      <point x="40" y="682" type="line"/>
      <point x="40" y="654" type="line"/>
      <point x="363" y="654" type="line"/>
      <point x="131" y="367" type="line"/>
    </contour>
    <contour>
      <point x="396" y="185" type="line"/>
      <point x="396" y="87"/>
      <point x="348" y="41"/>
      <point x="227" y="22" type="curve" smooth="yes"/>
      <point x="102" y="2"/>
      <point x="55" y="-26"/>
      <point x="55" y="-88" type="curve" smooth="yes"/>
      <point x="55" y="-140"/>
      <point x="95" y="-171"/>
      <point x="157" y="-199" type="curve"/>
      <point x="167" y="-176" type="line"/>
      <point x="111" y="-148"/>
      <point x="87" y="-127"/>
      <point x="87" y="-88" type="curve" smooth="yes"/>
      <point x="87" y="-38"/>
      <point x="127" y="-25"/>
      <point x="233" y="-6" type="curve" smooth="yes"/>
      <point x="364" y="17"/>
      <point x="428" y="69"/>
      <point x="428" y="186" type="curve"/>
    </contour>
    <contour>
      <point x="222" y="682" type="move" name="top"/>
    </contour>
  </outline>
</glyph>
<glyph name="acute.loclPLK" format="1">
  <advance width="190"/>
  <outline>
    <contour>
      <point x="30" y="590" type="line"/>
      <point x="48" y="578" type="line"/>
      <point x="160" y="732" type="line"/>
      <point x="131" y="751" type="line"/>
    </contour>
    <contour>
      <point x="60" y="520" type="move" name="_top"/>
    </contour>
  </outline>
</glyph>
<glyph name="circumflexacute" format="1">
  <advance width="415"/>
  <outline>
    <component base="uni0302.case" yOffset="-180"/>
    <component base="acutedbl" xOffset="218" yOffset="30"/>
    <contour>
      <point x="163" y="520" type="move" name="_top"/>
    </contour>
  </outline>
</glyph>
<glyph name="circumflexgrave" format="1">
  <advance width="407"/>
  <outline>
    <component base="uni0302.case" xOffset="82" yOffset="-180"/>
    <component base="gravedbl" xOffset="1" yOffset="30"/>
    <contour>
      <point x="245" y="520" type="move" name="_top"/>
    </contour>
  </outline>
</glyph>
<glyph name="colonmonetary.tf" format="1">
  <advance width="560"/>
  <outline>
    <contour>
      <point x="152" y="-147" type="line"/>
      <point x="182" y="-147" type="line"/>
      <point x="382" y="814" type="line"/>
      <point x="352" y="814" type="line"/>
    </contour>
    <contour>
      <point x="241" y="-147" type="line"/>
      <point x="271" y="-147" type="line"/>
      <point x="471" y="814" type="line"/>
      <point x="441" y="814" type="line"/>
    </contour>
    <contour>
      <point x="193" y="692"/>
      <point x="76" y="581"/>
      <point x="76" y="340" type="curve" smooth="yes"/>
      <point x="76" y="109"/>
      <point x="187" y="-10"/>
      <point x="335" y="-10" type="curve" smooth="yes"/>
      <point x="410" y="-10"/>
      <point x="462" y="16"/>
      <point x="504" y="53" type="curve"/>
      <point x="486" y="76" type="line"/>
      <point x="446" y="43"/>
      <point x="408" y="19"/>
      <point x="336" y="19" type="curve" smooth="yes"/>
      <point x="209" y="19"/>
      <point x="107" y="122"/>
      <point x="107" y="340" type="curve" smooth="yes"/>
      <point x="107" y="572"/>
      <point x="212" y="664"/>
      <point x="340" y="664" type="curve" smooth="yes"/>
      <point x="400" y="664"/>
      <point x="435" y="649"/>
      <point x="480" y="614" type="curve"/>
      <point x="497" y="635" type="line"/>
      <point x="454" y="670"/>
      <point x="410" y="692"/>
      <point x="338" y="692" type="curve" smooth="yes"/>
    </contour>
  </outline>
</glyph>
<glyph name="descRoundcy" format="1">
  <advance width="232"/>
  <outline>
    <contour>
      <point x="81" y="0" type="line"/>
      <point x="131" y="-31"/>
      <point x="171" y="-62"/>
      <point x="171" y="-124" type="curve" smooth="yes"/>
      <point x="171" y="-169"/>
      <point x="143" y="-191"/>
      <point x="102" y="-191" type="curve" smooth="yes"/>
      <point x="76" y="-191"/>
      <point x="59" y="-185"/>
      <point x="43" y="-177" type="curve"/>
      <point x="30" y="-201" type="line"/>
      <point x="46" y="-211"/>
      <point x="73" y="-219"/>
      <point x="102" y="-219" type="curve" smooth="yes"/>
      <point x="167" y="-219"/>
      <point x="202" y="-180"/>
      <point x="202" y="-124" type="curve" smooth="yes"/>
      <point x="202" y="-51"/>
      <point x="154" y="-15"/>
      <point x="91" y="16" type="curve"/>
    </contour>
    <contour>
      <point x="126" y="0" type="move" name="_bottom"/>
    </contour>
  </outline>
</glyph>
<glyph name="dieresisacutecomb" format="1">
  <advance width="283"/>
  <outline>
    <contour>
      <point x="40" y="690"/>
      <point x="30" y="679"/>
      <point x="30" y="665" type="curve" smooth="yes"/>
      <point x="30" y="651"/>
      <point x="40" y="640"/>
      <point x="55" y="640" type="curve" smooth="yes"/>
      <point x="71" y="640"/>
      <point x="81" y="651"/>
      <point x="81" y="665" type="curve" smooth="yes"/>
      <point x="81" y="679"/>
      <point x="71" y="690"/>
      <point x="55" y="690" type="curve" smooth="yes"/>
    </contour>
    <contour>
      <point x="212" y="690"/>
      <point x="202" y="679"/>
      <point x="202" y="665" type="curve" smooth="yes"/>
      <point x="202" y="651"/>
      <point x="212" y="640"/>
      <point x="228" y="640" type="curve" smooth="yes"/>
      <point x="243" y="640"/>
      <point x="253" y="651"/>
      <point x="253" y="665" type="curve" smooth="yes"/>
      <point x="253" y="679"/>
      <point x="243" y="690"/>
      <point x="228" y="690" type="curve" smooth="yes"/>
    </contour>
    <component base="acutedbl" xOffset="87" yOffset="50"/>
    <contour>
      <point x="142" y="520" type="move" name="_top"/>
    </contour>
  </outline>
</glyph>
<glyph name="dieresiscaroncomb.case" format="1">
  <advance width="325"/>
  <outline>
    <contour>
      <point x="63" y="792"/>
      <point x="53" y="781"/>
      <point x="53" y="767" type="curve" smooth="yes"/>
      <point x="53" y="753"/>
      <point x="63" y="742"/>
      <point x="78" y="742" type="curve" smooth="yes"/>
      <point x="94" y="742"/>
      <point x="104" y="753"/>
      <point x="104" y="767" type="curve" smooth="yes"/>
      <point x="104" y="781"/>
      <point x="94" y="792"/>
      <point x="78" y="792" type="curve" smooth="yes"/>
    </contour>
    <contour>
      <point x="235" y="792"/>
      <point x="225" y="781"/>
      <point x="225" y="767" type="curve"/>
      <point x="225" y="753"/>
      <point x="235" y="742"/>
      <point x="251" y="742" type="curve" smooth="yes"/>
      <point x="266" y="742"/>
      <point x="276" y="753"/>
      <point x="276" y="767" type="curve" smooth="yes"/>
      <point x="276" y="781"/>
      <point x="266" y="792"/>
      <point x="251" y="792" type="curve" smooth="yes"/>
    </contour>
    <component base="uni030C.case" yOffset="42"/>
    <contour>
      <point x="165" y="682" type="move" name="_top"/>
    </contour>
  </outline>
</glyph>
<glyph name="dieresiscaroncomb" format="1">
  <advance width="325"/>
  <outline>
    <contour>
      <point x="64" y="690"/>
      <point x="54" y="679"/>
      <point x="54" y="665" type="curve" smooth="yes"/>
      <point x="54" y="651"/>
      <point x="64" y="640"/>
      <point x="79" y="640" type="curve" smooth="yes"/>
      <point x="95" y="640"/>
      <point x="105" y="651"/>
      <point x="105" y="665" type="curve" smooth="yes"/>
      <point x="105" y="679"/>
      <point x="95" y="690"/>
      <point x="79" y="690" type="curve" smooth="yes"/>
    </contour>
    <contour>
      <point x="236" y="690"/>
      <point x="226" y="679"/>
      <point x="226" y="665" type="curve" smooth="yes"/>
      <point x="226" y="651"/>
      <point x="236" y="640"/>
      <point x="252" y="640" type="curve" smooth="yes"/>
      <point x="267" y="640"/>
      <point x="277" y="651"/>
      <point x="277" y="665" type="curve" smooth="yes"/>
      <point x="277" y="679"/>
      <point x="267" y="690"/>
      <point x="252" y="690" type="curve" smooth="yes"/>
    </contour>
    <component base="uni030C.case" yOffset="-60"/>
    <contour>
      <point x="166" y="520" type="move" name="_top"/>
    </contour>
  </outline>
</glyph>
<glyph name="dollar.tf" format="1">
  <advance width="560"/>
  <outline>
    <contour>
      <point x="269" y="0" type="line"/>
      <point x="269" y="-147" type="line"/>
      <point x="296" y="-147" type="line"/>
      <point x="296" y="1" type="line"/>
    </contour>
    <contour>
      <point x="269" y="840" type="line"/>
      <point x="269" y="681" type="line"/>
      <point x="296" y="681" type="line"/>
      <point x="296" y="840" type="line"/>
    </contour>
    <contour>
      <point x="167" y="692"/>
      <point x="94" y="624"/>
      <point x="94" y="533" type="curve" smooth="yes"/>
      <point x="94" y="442"/>
      <point x="143" y="398"/>
      <point x="280" y="355" type="curve" smooth="yes"/>
      <point x="405" y="316"/>
      <point x="452" y="279"/>
      <point x="452" y="182" type="curve" smooth="yes"/>
      <point x="452" y="81"/>
      <point x="379" y="19"/>
      <point x="271" y="19" type="curve" smooth="yes"/>
      <point x="188" y="19"/>
      <point x="135" y="49"/>
      <point x="87" y="91" type="curve"/>
      <point x="68" y="70" type="line"/>
      <point x="121" y="23"/>
      <point x="184" y="-10"/>
      <point x="272" y="-10" type="curve" smooth="yes"/>
      <point x="395" y="-10"/>
      <point x="482" y="67"/>
      <point x="482" y="183" type="curve" smooth="yes"/>
      <point x="482" y="296"/>
      <point x="424" y="340"/>
      <point x="290" y="381" type="curve" smooth="yes"/>
      <point x="170" y="418"/>
      <point x="125" y="451"/>
      <point x="125" y="533" type="curve" smooth="yes"/>
      <point x="125" y="610"/>
      <point x="185" y="663"/>
      <point x="278" y="663" type="curve" smooth="yes"/>
      <point x="347" y="663"/>
      <point x="392" y="645"/>
      <point x="442" y="599" type="curve"/>
      <point x="462" y="621" type="line"/>
      <point x="412" y="664"/>
      <point x="363" y="692"/>
      <point x="278" y="692" type="curve" smooth="yes"/>
    </contour>
  </outline>
</glyph>
<glyph name="f_f" format="1">
  <advance width="594"/>
  <outline>
    <contour>
      <point x="169" y="728"/>
      <point x="118" y="685"/>
      <point x="118" y="607" type="curve" smooth="yes"/>
      <point x="118" y="0" type="line"/>
      <point x="148" y="0" type="line"/>
      <point x="148" y="603" type="line" smooth="yes"/>
      <point x="148" y="673"/>
      <point x="188" y="700"/>
      <point x="261" y="700" type="curve" smooth="yes"/>
      <point x="316" y="700"/>
      <point x="359" y="691"/>
      <point x="426" y="662" type="curve"/>
      <point x="433" y="688" type="line"/>
      <point x="361" y="718"/>
      <point x="316" y="728"/>
      <point x="258" y="728" type="curve" smooth="yes"/>
    </contour>
    <contour>
      <point x="30" y="520" type="line"/>
      <point x="30" y="493" type="line"/>
      <point x="389" y="493" type="line"/>
      <point x="394" y="520" type="line"/>
    </contour>
    <component base="f" xOffset="284"/>
  </outline>
</glyph>
<glyph name="f_f_t" format="1">
  <advance width="898"/>
  <outline>
    <contour>
      <point x="169" y="728"/>
      <point x="118" y="685"/>
      <point x="118" y="607" type="curve" smooth="yes"/>
      <point x="118" y="0" type="line"/>
      <point x="148" y="0" type="line"/>
      <point x="148" y="603" type="line" smooth="yes"/>
      <point x="148" y="673"/>
      <point x="188" y="700"/>
      <point x="261" y="700" type="curve" smooth="yes"/>
      <point x="316" y="700"/>
      <point x="359" y="691"/>
      <point x="426" y="662" type="curve"/>
      <point x="433" y="688" type="line"/>
      <point x="361" y="718"/>
      <point x="316" y="728"/>
      <point x="258" y="728" type="curve" smooth="yes"/>
    </contour>
    <contour>
      <point x="30" y="520" type="line"/>
      <point x="30" y="493" type="line"/>
      <point x="389" y="493" type="line"/>
      <point x="394" y="520" type="line"/>
    </contour>
    <component base="f_t" xOffset="284"/>
  </outline>
</glyph>
<glyph name="f_j" format="1">
  <advance width="553"/>
  <outline>
    <contour>
      <point x="169" y="738"/>
      <point x="118" y="700"/>
      <point x="118" y="617" type="curve" smooth="yes"/>
      <point x="118" y="520" type="line"/>
      <point x="30" y="520" type="line"/>
      <point x="30" y="493" type="line"/>
      <point x="118" y="493" type="line"/>
      <point x="118" y="0" type="line"/>
      <point x="148" y="0" type="line"/>
      <point x="148" y="493" type="line"/>
      <point x="408" y="493" type="line"/>
      <point x="438" y="520" type="line"/>
      <point x="148" y="520" type="line"/>
      <point x="148" y="611" type="line" smooth="yes"/>
      <point x="148" y="690"/>
      <point x="189" y="710"/>
      <point x="248" y="710" type="curve" smooth="yes"/>
      <point x="302" y="710"/>
      <point x="344" y="694"/>
      <point x="383" y="675" type="curve"/>
      <point x="395" y="700" type="line"/>
      <point x="355" y="721"/>
      <point x="305" y="738"/>
      <point x="247" y="738" type="curve" smooth="yes"/>
    </contour>
    <contour>
      <point x="408" y="520" type="line"/>
      <point x="408" y="10" type="line" smooth="yes"/>
      <point x="408" y="-107"/>
      <point x="380" y="-137"/>
      <point x="311" y="-173" type="curve"/>
      <point x="320" y="-195" type="line"/>
      <point x="400" y="-155"/>
      <point x="438" y="-123"/>
      <point x="438" y="9" type="curve" smooth="yes"/>
      <point x="438" y="520" type="line"/>
    </contour>
  </outline>
</glyph>
<glyph name="f_t" format="1">
  <advance width="614"/>
  <outline>
    <contour>
      <point x="169" y="738"/>
      <point x="118" y="695"/>
      <point x="118" y="617" type="curve" smooth="yes"/>
      <point x="118" y="0" type="line"/>
      <point x="148" y="0" type="line"/>
      <point x="148" y="613" type="line" smooth="yes"/>
      <point x="148" y="683"/>
      <point x="188" y="710"/>
      <point x="261" y="710" type="curve" smooth="yes"/>
      <point x="310" y="710"/>
      <point x="349" y="702"/>
      <point x="406" y="682" type="curve"/>
      <point x="399" y="712" type="line"/>
      <point x="347" y="729"/>
      <point x="310" y="738"/>
      <point x="258" y="738" type="curve" smooth="yes"/>
    </contour>
    <contour>
      <point x="30" y="520" type="line"/>
      <point x="30" y="493" type="line"/>
      <point x="289" y="493" type="line"/>
      <point x="294" y="520" type="line"/>
    </contour>
    <contour>
      <point x="399" y="712" type="line"/>
      <point x="399" y="118" type="line" smooth="yes"/>
      <point x="399" y="32"/>
      <point x="444" y="-10"/>
      <point x="515" y="-10" type="curve" smooth="yes"/>
      <point x="556" y="-10"/>
      <point x="590" y="2"/>
      <point x="619" y="20" type="curve"/>
      <point x="605" y="43" type="line"/>
      <point x="579" y="28"/>
      <point x="551" y="18"/>
      <point x="517" y="18" type="curve" smooth="yes"/>
      <point x="458" y="18"/>
      <point x="429" y="53"/>
      <point x="429" y="120" type="curve" smooth="yes"/>
      <point x="429" y="716" type="line"/>
    </contour>
    <contour>
      <point x="264" y="520" type="line"/>
      <point x="264" y="493" type="line"/>
      <point x="567" y="493" type="line"/>
      <point x="572" y="520" type="line"/>
    </contour>
  </outline>
</glyph>
<glyph name="gravecomb.case" format="1">
  <advance width="253"/>
  <outline>
    <contour>
      <point x="30" y="837" type="line"/>
      <point x="214" y="761" type="line"/>
      <point x="223" y="782" type="line"/>
      <point x="46" y="869" type="line"/>
    </contour>
    <contour>
      <point x="129" y="869" type="move" name="top"/>
    </contour>
    <contour>
      <point x="127" y="682" type="move" name="_top"/>
    </contour>
  </outline>
</glyph>
<glyph name="gravedbl" format="1">
  <advance width="196"/>
  <outline>
    <contour>
      <point x="42" y="761" type="line"/>
      <point x="149" y="646" type="line"/>
      <point x="166" y="661" type="line"/>
      <point x="66" y="783" type="line"/>
    </contour>
    <contour>
      <point x="158" y="520" type="move" name="_topleft"/>
    </contour>
    <contour>
      <point x="138" y="520" type="move" name="_top"/>
    </contour>
  </outline>
</glyph>
<glyph name="hbar.sc" format="1">
  <advance width="608"/>
  <outline>
    <contour>
      <point x="488" y="451" type="line"/>
      <point x="62" y="451" type="line"/>
      <point x="62" y="426" type="line"/>
      <point x="120" y="426" type="line"/>
      <point x="546" y="426" type="line"/>
      <point x="546" y="451" type="line"/>
    </contour>
    <component base="h.sc"/>
  </outline>
</glyph>
<glyph name="lambda.sc" format="1">
  <advance width="492"/>
  <outline>
    <contour>
      <point x="229" y="560" type="line"/>
      <point x="25" y="0" type="line"/>
      <point x="55" y="0" type="line"/>
      <point x="247" y="535" type="line"/>
      <point x="435" y="0" type="line"/>
      <point x="467" y="0" type="line"/>
      <point x="265" y="560" type="line"/>
    </contour>
    <contour>
      <point x="247" y="560" type="move" name="top"/>
    </contour>
    <contour>
      <point x="239" y="0" type="move" name="bottom"/>
    </contour>
  </outline>
</glyph>
<glyph name="lozenge.tosf" format="1">
  <advance width="560"/>
  <outline>
    <contour>
      <point x="264" y="662" type="line"/>
      <point x="80" y="333" type="line"/>
      <point x="264" y="0" type="line"/>
      <point x="296" y="0" type="line"/>
      <point x="480" y="333" type="line"/>
      <point x="296" y="662" type="line"/>
    </contour>
    <contour>
      <point x="447" y="333" type="line"/>
      <point x="280" y="26" type="line"/>
      <point x="113" y="333" type="line"/>
      <point x="280" y="635" type="line"/>
    </contour>
  </outline>
</glyph>
<glyph name="lslash.sc" format="1">
  <advance width="418"/>
  <outline>
    <contour>
      <point x="118" y="253" type="line"/>
      <point x="42" y="206" type="line"/>
      <point x="55" y="185" type="line"/>
      <point x="339" y="363" type="line"/>
      <point x="326" y="384" type="line"/>
    </contour>
    <component base="l.sc" xOffset="-2"/>
  </outline>
</glyph>
<glyph name="ringacutecomb.case" format="1">
  <advance width="253"/>
  <outline>
    <component base="uni030A.case" xOffset="3" yOffset="-40"/>
    <component base="acutecomb.case" xOffset="-6" yOffset="149"/>
    <contour>
      <point x="119" y="682" type="move" name="_top"/>
    </contour>
  </outline>
</glyph>
<glyph name="tildeacute.case" format="1">
  <advance width="333"/>
  <outline>
    <component base="tildecomb" yOffset="82"/>
    <component base="acutecomb.case" xOffset="40" yOffset="102"/>
    <contour>
      <point x="167" y="682" type="move" name="_top"/>
    </contour>
  </outline>
</glyph>
<glyph name="tonos.case" format="1">
  <advance width="98"/>
  <outline>
    <contour>
      <point x="31" y="534" type="line"/>
      <point x="54" y="534" type="line"/>
      <point x="68" y="682" type="line"/>
      <point x="30" y="684" type="line"/>
    </contour>
    <contour>
      <point x="90" y="682" type="move" name="_topleft"/>
    </contour>
  </outline>
</glyph>
<glyph name="tsehelpercy" format="1">
  <advance width="574"/>
  <outline>
    <contour>
      <point x="429" y="28" type="line"/>
      <point x="145" y="28" type="line"/>
      <point x="145" y="520" type="line"/>
      <point x="115" y="520" type="line"/>
      <point x="115" y="0" type="line"/>
      <point x="459" y="0" type="line"/>
      <point x="459" y="520" type="line"/>
      <point x="429" y="520" type="line"/>
    </contour>
    <contour>
      <point x="287" y="0" type="move" name="bottom"/>
    </contour>
    <contour>
      <point x="469" y="0" type="move" name="bottomright"/>
    </contour>
  </outline>
</glyph>
<glyph name="two.tosf" format="1">
  <advance width="560"/>
  <outline>
    <contour>
      <point x="190" y="567"/>
      <point x="131" y="539"/>
      <point x="77" y="467" type="curve"/>
      <point x="100" y="451" type="line"/>
      <point x="143" y="508"/>
      <point x="193" y="539"/>
      <point x="269" y="539" type="curve" smooth="yes"/>
      <point x="363" y="539"/>
      <point x="413" y="481"/>
      <point x="413" y="399" type="curve" smooth="yes"/>
      <point x="413" y="303"/>
      <point x="356" y="211"/>
      <point x="89" y="29" type="curve"/>
      <point x="89" y="0" type="line"/>
      <point x="457" y="0" type="line"/>
      <point x="463" y="30" type="line"/>
      <point x="132" y="30" type="line"/>
      <point x="375" y="194"/>
      <point x="444" y="291"/>
      <point x="444" y="402" type="curve" smooth="yes"/>
      <point x="444" y="494"/>
      <point x="383" y="567"/>
      <point x="269" y="567" type="curve" smooth="yes"/>
    </contour>
  </outline>
</glyph>
<glyph name="underscore.001" format="1">
  <advance width="520"/>
  <outline>
    <contour>
      <point x="483" y="-105" type="line"/>
      <point x="483" y="-77" type="line"/>
      <point x="38" y="-77" type="line"/>
      <point x="38" y="-105" type="line"/>
    </contour>
  </outline>
</glyph>
<glyph name="uni01F6.sc" format="1">
  <advance width="860"/>
  <outline>
    <contour>
      <point x="458" y="560" type="line"/>
      <point x="458" y="309" type="line"/>
      <point x="150" y="309" type="line"/>
      <point x="150" y="560" type="line"/>
      <point x="120" y="560" type="line"/>
      <point x="120" y="0" type="line"/>
      <point x="150" y="0" type="line"/>
      <point x="150" y="281" type="line"/>
      <point x="458" y="281" type="line"/>
      <point x="458" y="140" type="line"/>
      <point x="488" y="136" type="line"/>
      <point x="488" y="560" type="line"/>
    </contour>
    <contour>
      <point x="691" y="-8"/>
      <point x="770" y="59"/>
      <point x="770" y="256" type="curve" smooth="yes"/>
      <point x="770" y="319"/>
      <point x="768" y="350"/>
      <point x="765" y="411" type="curve"/>
      <point x="735" y="411" type="line"/>
      <point x="738" y="350"/>
      <point x="740" y="319"/>
      <point x="740" y="256" type="curve" smooth="yes"/>
      <point x="740" y="65"/>
      <point x="670" y="20"/>
      <point x="599" y="20" type="curve" smooth="yes"/>
      <point x="536" y="20"/>
      <point x="488" y="51"/>
      <point x="488" y="130" type="curve" smooth="yes"/>
      <point x="488" y="427" type="line"/>
      <point x="458" y="427" type="line"/>
      <point x="458" y="132" type="line" smooth="yes"/>
      <point x="458" y="38"/>
      <point x="518" y="-8"/>
      <point x="598" y="-8" type="curve" smooth="yes"/>
    </contour>
  </outline>
</glyph>
<glyph name="uni0289.sc" format="1">
  <advance width="609"/>
  <outline>
    <contour>
      <point x="489" y="437" type="line"/>
      <point x="62" y="437" type="line"/>
      <point x="62" y="413" type="line"/>
      <point x="120" y="413" type="line"/>
      <point x="547" y="413" type="line"/>
      <point x="547" y="437" type="line"/>
    </contour>
    <component base="u.sc" xOffset="10"/>
  </outline>
</glyph>
<glyph name="uni0302.case" format="1">
  <advance width="325"/>
  <outline>
    <contour>
      <point x="163" y="844" type="line"/>
      <point x="280" y="765" type="line"/>
      <point x="295" y="783" type="line"/>
      <point x="171" y="877" type="line"/>
      <point x="155" y="877" type="line"/>
      <point x="30" y="783" type="line"/>
      <point x="45" y="765" type="line"/>
    </contour>
    <contour>
      <point x="162" y="877" type="move" name="top"/>
    </contour>
    <contour>
      <point x="247" y="730" type="move" name="topright"/>
    </contour>
    <contour>
      <point x="77" y="730" type="move" name="topleft"/>
    </contour>
    <contour>
      <point x="163" y="682" type="move" name="_top"/>
    </contour>
  </outline>
</glyph>
<glyph name="uni0306.sc" format="1">
  <advance width="286"/>
  <outline>
    <component base="uni0306" yOffset="30"/>
    <contour>
      <point x="144" y="560" type="move" name="_top"/>
    </contour>
  </outline>
</glyph>
<glyph name="uni0307.case" format="1">
  <advance width="112"/>
  <outline>
    <component base="uni0307" yOffset="126"/>
    <contour>
      <point x="58" y="857" type="move" name="top"/>
    </contour>
    <contour>
      <point x="56" y="682" type="move" name="_top"/>
    </contour>
  </outline>
</glyph>
<glyph name="uni030F.case" format="1">
  <advance width="268"/>
  <outline>
    <component base="uni030F" yOffset="126"/>
    <contour>
      <point x="176" y="682" type="move" name="_top"/>
    </contour>
  </outline>
</glyph>
<glyph name="uni03DF.sc" format="1">
  <advance width="386"/>
  <outline>
    <contour>
      <point x="190" y="0" type="line"/>
      <point x="356" y="269" type="line"/>
      <point x="325" y="277" type="line"/>
      <point x="156" y="0" type="line"/>
    </contour>
    <contour>
      <point x="356" y="269" type="line"/>
      <point x="347" y="297" type="line"/>
      <point x="30" y="297" type="line"/>
      <point x="39" y="269" type="line"/>
    </contour>
    <contour>
      <point x="228" y="560" type="line"/>
      <point x="194" y="560" type="line"/>
      <point x="30" y="297" type="line"/>
      <point x="60" y="289" type="line"/>
    </contour>
    <contour>
      <point x="191" y="560" type="move" name="top"/>
    </contour>
    <contour>
      <point x="191" y="0" type="move" name="bottom"/>
    </contour>
  </outline>
</glyph>
<glyph name="uni044D.sc" format="1">
  <advance width="465"/>
  <outline>
    <contour>
      <point x="141" y="568"/>
      <point x="90" y="550"/>
      <point x="43" y="515" type="curve"/>
      <point x="59" y="493" type="line"/>
      <point x="112" y="529"/>
      <point x="150" y="540"/>
      <point x="204" y="540" type="curve" smooth="yes"/>
      <point x="286" y="540"/>
      <point x="355" y="489"/>
      <point x="360" y="289" type="curve"/>
      <point x="360" y="278" type="line"/>
      <point x="360" y="108"/>
      <point x="295" y="21"/>
      <point x="177" y="21" type="curve" smooth="yes"/>
      <point x="117" y="21"/>
      <point x="82" y="41"/>
      <point x="43" y="71" type="curve"/>
      <point x="25" y="50" type="line"/>
      <point x="61" y="20"/>
      <point x="107" y="-8"/>
      <point x="178" y="-8" type="curve" smooth="yes"/>
      <point x="315" y="-8"/>
      <point x="390" y="93"/>
      <point x="390" y="278" type="curve" smooth="yes"/>
      <point x="390" y="506"/>
      <point x="303" y="568"/>
      <point x="205" y="568" type="curve" smooth="yes"/>
    </contour>
    <contour>
      <point x="109" y="305" type="line"/>
      <point x="109" y="277" type="line"/>
      <point x="366" y="277" type="line"/>
      <point x="366" y="305" type="line"/>
    </contour>
    <contour>
      <point x="199" y="560" type="move" name="top"/>
    </contour>
    <contour>
      <point x="228" y="0" type="move" name="bottom"/>
    </contour>
  </outline>
</glyph>
<glyph name="uni0463.sc" format="1">
  <advance width="528"/>
  <outline>
    <contour>
      <point x="146" y="0" type="line"/>
      <point x="282" y="0" type="line" smooth="yes"/>
      <point x="399" y="0"/>
      <point x="483" y="52"/>
      <point x="483" y="174" type="curve" smooth="yes"/>
      <point x="483" y="282"/>
      <point x="408" y="336"/>
      <point x="282" y="336" type="curve" smooth="yes"/>
      <point x="169" y="336" type="line"/>
      <point x="169" y="308" type="line"/>
      <point x="285" y="308" type="line" smooth="yes"/>
      <point x="390" y="308"/>
      <point x="452" y="267"/>
      <point x="452" y="174" type="curve" smooth="yes"/>
      <point x="452" y="70"/>
      <point x="387" y="28"/>
      <point x="289" y="28" type="curve" smooth="yes"/>
      <point x="176" y="28" type="line"/>
      <point x="176" y="560" type="line"/>
      <point x="146" y="560" type="line"/>
    </contour>
    <contour>
      <point x="319" y="453" type="line"/>
      <point x="319" y="480" type="line"/>
      <point x="146" y="480" type="line"/>
      <point x="15" y="480" type="line"/>
      <point x="15" y="453" type="line"/>
    </contour>
    <contour>
      <point x="272" y="560" type="move" name="top"/>
    </contour>
    <contour>
      <point x="272" y="0" type="move" name="bottom"/>
    </contour>
  </outline>
</glyph>
<glyph name="uni0491.sc" format="1">
  <advance width="417"/>
  <outline>
    <contour>
      <point x="407" y="560" type="line"/>
      <point x="407" y="667" type="line"/>
      <point x="379" y="667" type="line"/>
      <point x="379" y="550" type="line"/>
    </contour>
    <component base="uni0433.sc"/>
  </outline>
</glyph>
<glyph name="uni0493.sc" format="1">
  <advance width="439"/>
  <outline>
    <contour>
      <point x="144" y="327" type="line"/>
      <point x="65" y="327" type="line"/>
      <point x="65" y="300" type="line"/>
      <point x="345" y="300" type="line"/>
      <point x="345" y="327" type="line"/>
    </contour>
    <component base="uni0433.sc" xOffset="22"/>
  </outline>
</glyph>
<glyph name="uni049F.sc" format="1">
  <advance width="489"/>
  <outline>
    <contour>
      <point x="263" y="445" type="line"/>
      <point x="263" y="471" type="line"/>
      <point x="120" y="471" type="line"/>
      <point x="66" y="471" type="line"/>
      <point x="66" y="445" type="line"/>
    </contour>
    <component base="uni043A.sc"/>
  </outline>
</glyph>
<glyph name="uni04A1.sc" format="1">
  <advance width="563"/>
  <outline>
    <contour>
      <point x="225" y="560" type="line"/>
      <point x="15" y="560" type="line"/>
      <point x="15" y="532" type="line"/>
      <point x="194" y="532" type="line"/>
    </contour>
    <component base="uni043A.sc" xOffset="74"/>
  </outline>
</glyph>
<glyph name="uni04A5.sc" format="1">
  <advance width="682"/>
  <outline>
    <contour>
      <point x="488" y="531" type="line"/>
      <point x="667" y="531" type="line"/>
      <point x="672" y="560" type="line"/>
      <point x="459" y="560" type="line"/>
    </contour>
    <component base="h.sc"/>
  </outline>
</glyph>
<glyph name="uni04B1.sc" format="1">
  <advance width="441"/>
  <outline>
    <contour>
      <point x="93" y="243" type="line"/>
      <point x="93" y="216" type="line"/>
      <point x="208" y="216" type="line"/>
      <point x="237" y="216" type="line"/>
      <point x="351" y="216" type="line"/>
      <point x="351" y="243" type="line"/>
    </contour>
    <component base="y.sc"/>
  </outline>
</glyph>
<glyph name="uni04B9.sc" format="1">
  <advance width="527"/>
  <outline>
    <contour>
      <point x="208" y="417" type="line"/>
      <point x="208" y="100" type="line"/>
      <point x="233" y="100" type="line"/>
      <point x="233" y="417" type="line"/>
    </contour>
    <contour>
      <point x="50" y="560" type="line"/>
      <point x="50" y="341" type="line" smooth="yes"/>
      <point x="50" y="243"/>
      <point x="117" y="185"/>
      <point x="214" y="185" type="curve" smooth="yes"/>
      <point x="289" y="185"/>
      <point x="342" y="216"/>
      <point x="383" y="256" type="curve"/>
      <point x="382" y="291" type="line"/>
      <point x="348" y="246"/>
      <point x="287" y="213"/>
      <point x="218" y="213" type="curve" smooth="yes"/>
      <point x="132" y="213"/>
      <point x="80" y="260"/>
      <point x="80" y="343" type="curve" smooth="yes"/>
      <point x="80" y="560" type="line"/>
    </contour>
    <contour>
      <point x="377" y="560" type="line"/>
      <point x="377" y="0" type="line"/>
      <point x="407" y="0" type="line"/>
      <point x="407" y="560" type="line"/>
    </contour>
    <contour>
      <point x="229" y="560" type="move" name="top"/>
    </contour>
    <contour>
      <point x="358" y="0" type="move" name="bottomleft"/>
    </contour>
    <contour>
      <point x="408" y="0" type="move" name="bottomright"/>
    </contour>
    <contour>
      <point x="264" y="0" type="move" name="bottom"/>
    </contour>
  </outline>
</glyph>
<glyph name="uni04BD.sc" format="1">
  <advance width="649"/>
  <outline>
    <contour>
      <point x="175" y="276" type="line"/>
      <point x="173" y="465"/>
      <point x="257" y="539"/>
      <point x="366" y="539" type="curve" smooth="yes"/>
      <point x="478" y="539"/>
      <point x="552" y="463"/>
      <point x="553" y="286" type="curve"/>
      <point x="168" y="286" type="line"/>
      <point x="170" y="259" type="line"/>
      <point x="583" y="259" type="line"/>
      <point x="584" y="270"/>
      <point x="584" y="277"/>
      <point x="584" y="287" type="curve" smooth="yes"/>
      <point x="584" y="476"/>
      <point x="498" y="567"/>
      <point x="366" y="567" type="curve" smooth="yes"/>
      <point x="236" y="567"/>
      <point x="143" y="475"/>
      <point x="143" y="281" type="curve" smooth="yes"/>
      <point x="143" y="76"/>
      <point x="231" y="-8"/>
      <point x="363" y="-8" type="curve" smooth="yes"/>
      <point x="436" y="-8"/>
      <point x="490" y="13"/>
      <point x="546" y="58" type="curve"/>
      <point x="529" y="79" type="line"/>
      <point x="472" y="35"/>
      <point x="425" y="20"/>
      <point x="363" y="20" type="curve" smooth="yes"/>
      <point x="248" y="20"/>
      <point x="179" y="91"/>
      <point x="175" y="270" type="curve"/>
    </contour>
    <contour>
      <point x="10" y="297"/>
      <point x="50" y="259"/>
      <point x="128" y="259" type="curve" smooth="yes"/>
      <point x="162" y="259" type="line"/>
      <point x="162" y="285" type="line"/>
      <point x="124" y="285" type="line" smooth="yes"/>
      <point x="64" y="285"/>
      <point x="40" y="316"/>
      <point x="40" y="359" type="curve" smooth="yes"/>
      <point x="40" y="392"/>
      <point x="52" y="414"/>
      <point x="64" y="435" type="curve"/>
      <point x="41" y="447" type="line"/>
      <point x="26" y="424"/>
      <point x="10" y="398"/>
      <point x="10" y="359" type="curve" smooth="yes"/>
    </contour>
    <contour>
      <point x="444" y="0" type="move" name="ogonek"/>
    </contour>
    <contour>
      <point x="325" y="0" type="move" name="bottom"/>
    </contour>
    <contour>
      <point x="325" y="560" type="move" name="top"/>
    </contour>
  </outline>
</glyph>
<glyph name="uni0505.sc" format="1">
  <advance width="664"/>
  <outline>
    <contour>
      <point x="557" y="312" type="line"/>
      <point x="561" y="281"/>
      <point x="562" y="249"/>
      <point x="562" y="215" type="curve" smooth="yes"/>
      <point x="562" y="65"/>
      <point x="506" y="20"/>
      <point x="440" y="20" type="curve" smooth="yes"/>
      <point x="383" y="20"/>
      <point x="356" y="45"/>
      <point x="306" y="127" type="curve" smooth="yes"/>
      <point x="218" y="271" type="line"/>
      <point x="186" y="267" type="line"/>
      <point x="280" y="114" type="line" smooth="yes"/>
      <point x="333" y="27"/>
      <point x="369" y="-8"/>
      <point x="440" y="-8" type="curve" smooth="yes"/>
      <point x="529" y="-8"/>
      <point x="592" y="59"/>
      <point x="592" y="216" type="curve" smooth="yes"/>
      <point x="592" y="249"/>
      <point x="591" y="281"/>
      <point x="587" y="312" type="curve"/>
    </contour>
    <contour>
      <point x="50" y="560" type="line"/>
      <point x="50" y="532" type="line"/>
      <point x="152" y="532" type="line" smooth="yes"/>
      <point x="278" y="532"/>
      <point x="324" y="489"/>
      <point x="324" y="412" type="curve" smooth="yes"/>
      <point x="324" y="328"/>
      <point x="266" y="288"/>
      <point x="157" y="288" type="curve" smooth="yes"/>
      <point x="72" y="288" type="line"/>
      <point x="72" y="261" type="line"/>
      <point x="193" y="261" type="line"/>
      <point x="291" y="277"/>
      <point x="355" y="315"/>
      <point x="355" y="412" type="curve" smooth="yes"/>
      <point x="355" y="508"/>
      <point x="293" y="560"/>
      <point x="156" y="560" type="curve" smooth="yes"/>
    </contour>
    <contour>
      <point x="327" y="560" type="move" name="top"/>
    </contour>
    <contour>
      <point x="327" y="0" type="move" name="bottom"/>
    </contour>
  </outline>
</glyph>
<glyph name="uni0507.sc" format="1">
  <advance width="408"/>
  <outline>
    <contour>
      <point x="193" y="261" type="line"/>
      <point x="291" y="277"/>
      <point x="355" y="315"/>
      <point x="355" y="412" type="curve" smooth="yes"/>
      <point x="355" y="508"/>
      <point x="293" y="560"/>
      <point x="156" y="560" type="curve" smooth="yes"/>
      <point x="50" y="560" type="line"/>
      <point x="50" y="532" type="line"/>
      <point x="152" y="532" type="line" smooth="yes"/>
      <point x="278" y="532"/>
      <point x="324" y="489"/>
      <point x="324" y="412" type="curve" smooth="yes"/>
      <point x="324" y="328"/>
      <point x="266" y="288"/>
      <point x="157" y="288" type="curve" smooth="yes"/>
      <point x="72" y="288" type="line"/>
      <point x="72" y="261" type="line"/>
    </contour>
    <contour>
      <point x="384" y="0" type="line"/>
      <point x="218" y="271" type="line"/>
      <point x="186" y="267" type="line"/>
      <point x="347" y="0" type="line"/>
    </contour>
    <component base="descStraightcy.case" xOffset="326"/>
    <contour>
      <point x="205" y="560" type="move" name="top"/>
    </contour>
    <contour>
      <point x="205" y="-193" type="move" name="bottom"/>
    </contour>
  </outline>
</glyph>
<glyph name="uni0515.sc" format="1">
  <advance width="672"/>
  <outline>
    <contour>
      <point x="168" y="533" type="line"/>
      <point x="300" y="533" type="line"/>
      <point x="300" y="560" type="line"/>
      <point x="153" y="560" type="line"/>
    </contour>
    <contour>
      <point x="153" y="560" type="line"/>
      <point x="125" y="287" type="line" smooth="yes"/>
      <point x="103" y="71"/>
      <point x="94" y="41"/>
      <point x="41" y="19" type="curve"/>
      <point x="50" y="-6" type="line"/>
      <point x="124" y="24"/>
      <point x="131" y="58"/>
      <point x="155" y="285" type="curve" smooth="yes"/>
      <point x="181" y="536" type="line"/>
    </contour>
    <component base="x.sc" xOffset="237"/>
    <contour>
      <point x="324" y="560" type="move" name="top"/>
    </contour>
    <contour>
      <point x="324" y="0" type="move" name="bottom"/>
    </contour>
  </outline>
</glyph>
<glyph name="uni0521.sc" format="1">
  <advance width="829"/>
  <outline>
    <contour>
      <point x="539" y="360"/>
      <point x="484" y="327"/>
      <point x="441" y="280" type="curve"/>
      <point x="441" y="245" type="line"/>
      <point x="490" y="304"/>
      <point x="545" y="332"/>
      <point x="616" y="332" type="curve" smooth="yes"/>
      <point x="704" y="332"/>
      <point x="744" y="282"/>
      <point x="744" y="207" type="curve" smooth="yes"/>
      <point x="744" y="0" type="line"/>
      <point x="774" y="0" type="line"/>
      <point x="774" y="209" type="line" smooth="yes"/>
      <point x="774" y="302"/>
      <point x="718" y="360"/>
      <point x="617" y="360" type="curve" smooth="yes"/>
    </contour>
    <component base="uni043B.sc"/>
    <component base="hookHELPER" xOffset="540"/>
    <contour>
      <point x="415" y="560" type="move" name="top"/>
    </contour>
    <contour>
      <point x="415" y="-193" type="move" name="bottom"/>
    </contour>
  </outline>
</glyph>
<glyph name="uni0E3F.tf" format="1">
  <advance width="560"/>
  <outline>
    <contour>
      <point x="250" y="10" type="line"/>
      <point x="250" y="-147" type="line"/>
      <point x="277" y="-147" type="line"/>
      <point x="277" y="11" type="line"/>
    </contour>
    <contour>
      <point x="250" y="814" type="line"/>
      <point x="250" y="674" type="line"/>
      <point x="277" y="674" type="line"/>
      <point x="277" y="814" type="line"/>
    </contour>
    <contour>
      <point x="91" y="682" type="line"/>
      <point x="91" y="0" type="line"/>
      <point x="270" y="0" type="line" smooth="yes"/>
      <point x="409" y="0"/>
      <point x="488" y="65"/>
      <point x="488" y="184" type="curve" smooth="yes"/>
      <point x="488" y="305"/>
      <point x="418" y="356"/>
      <point x="336" y="361" type="curve"/>
      <point x="409" y="374"/>
      <point x="455" y="419"/>
      <point x="455" y="513" type="curve" smooth="yes"/>
      <point x="455" y="627"/>
      <point x="373" y="682"/>
      <point x="231" y="682" type="curve" smooth="yes"/>
    </contour>
    <contour>
      <point x="356" y="653"/>
      <point x="424" y="611"/>
      <point x="424" y="512" type="curve" smooth="yes"/>
      <point x="424" y="423"/>
      <point x="368" y="373"/>
      <point x="282" y="373" type="curve" smooth="yes"/>
      <point x="115" y="373" type="line"/>
      <point x="115" y="346" type="line"/>
      <point x="287" y="346" type="line" smooth="yes"/>
      <point x="386" y="346"/>
      <point x="457" y="296"/>
      <point x="457" y="184" type="curve" smooth="yes"/>
      <point x="457" y="79"/>
      <point x="387" y="28"/>
      <point x="271" y="28" type="curve" smooth="yes"/>
      <point x="121" y="28" type="line"/>
      <point x="121" y="653" type="line"/>
      <point x="235" y="653" type="line" smooth="yes"/>
    </contour>
  </outline>
</glyph>
<glyph name="uni1FDF.case" format="1">
  <advance width="333"/>
  <outline>
    <contour>
      <point x="176" y="531" type="line"/>
      <point x="192" y="536"/>
      <point x="199" y="545"/>
      <point x="199" y="561" type="curve" smooth="yes"/>
      <point x="199" y="578"/>
      <point x="186" y="592"/>
      <point x="167" y="592" type="curve" smooth="yes"/>
      <point x="145" y="592"/>
      <point x="134" y="578"/>
      <point x="134" y="561" type="curve" smooth="yes"/>
      <point x="134" y="545"/>
      <point x="139" y="535"/>
      <point x="153" y="504" type="curve" smooth="yes"/>
      <point x="176" y="454" type="line"/>
      <point x="199" y="454" type="line"/>
    </contour>
    <component base="uni1FC0" yOffset="-56"/>
    <contour>
      <point x="298" y="682" type="move" name="_topleft"/>
    </contour>
    <contour>
      <point x="169" y="689" type="move" name="top"/>
    </contour>
  </outline>
</glyph>
<glyph name="uni1FEF.case" format="1">
  <advance width="131"/>
  <outline>
    <contour>
      <point x="30" y="682" type="line"/>
      <point x="78" y="541" type="line"/>
      <point x="101" y="545" type="line"/>
      <point x="67" y="690" type="line"/>
    </contour>
    <contour>
      <point x="109" y="682" type="move" name="_topleft"/>
    </contour>
  </outline>
</glyph>
<glyph name="uni20A6.tf" format="1">
  <advance width="560"/>
  <outline>
    <contour>
      <point x="18" y="309" type="line"/>
      <point x="18" y="281" type="line"/>
      <point x="542" y="281" type="line"/>
      <point x="542" y="309" type="line"/>
    </contour>
    <contour>
      <point x="18" y="401" type="line"/>
      <point x="18" y="373" type="line"/>
      <point x="542" y="373" type="line"/>
      <point x="542" y="401" type="line"/>
    </contour>
    <contour>
      <point x="447" y="682" type="line"/>
      <point x="447" y="225" type="line" smooth="yes"/>
      <point x="447" y="136"/>
      <point x="449" y="73"/>
      <point x="450" y="34" type="curve"/>
      <point x="122" y="682" type="line"/>
      <point x="84" y="682" type="line"/>
      <point x="84" y="0" type="line"/>
      <point x="114" y="0" type="line"/>
      <point x="114" y="445" type="line" smooth="yes"/>
      <point x="114" y="560"/>
      <point x="113" y="610"/>
      <point x="110" y="648" type="curve"/>
      <point x="439" y="0" type="line"/>
      <point x="476" y="0" type="line"/>
      <point x="476" y="682" type="line"/>
    </contour>
  </outline>
</glyph>
<glyph name="uni20A6.tosf" format="1">
  <advance width="560"/>
  <outline>
    <contour>
      <point x="18" y="299" type="line"/>
      <point x="18" y="271" type="line"/>
      <point x="542" y="271" type="line"/>
      <point x="542" y="299" type="line"/>
    </contour>
    <contour>
      <point x="18" y="391" type="line"/>
      <point x="18" y="363" type="line"/>
      <point x="542" y="363" type="line"/>
      <point x="542" y="391" type="line"/>
    </contour>
    <contour>
      <point x="447" y="662" type="line"/>
      <point x="447" y="225" type="line" smooth="yes"/>
      <point x="447" y="136"/>
      <point x="449" y="73"/>
      <point x="450" y="34" type="curve"/>
      <point x="122" y="662" type="line"/>
      <point x="84" y="662" type="line"/>
      <point x="84" y="0" type="line"/>
      <point x="114" y="0" type="line"/>
      <point x="114" y="425" type="line" smooth="yes"/>
      <point x="114" y="540"/>
      <point x="113" y="590"/>
      <point x="110" y="628" type="curve"/>
      <point x="439" y="0" type="line"/>
      <point x="476" y="0" type="line"/>
      <point x="476" y="662" type="line"/>
    </contour>
  </outline>
</glyph>
<glyph name="uni20A9.tf" format="1">
  <advance width="900"/>
  <outline>
    <contour>
      <point x="114" y="309" type="line"/>
      <point x="114" y="281" type="line"/>
      <point x="802" y="281" type="line"/>
      <point x="802" y="309" type="line"/>
    </contour>
    <contour>
      <point x="114" y="401" type="line"/>
      <point x="114" y="373" type="line"/>
      <point x="802" y="373" type="line"/>
      <point x="802" y="401" type="line"/>
    </contour>
    <contour>
      <point x="771" y="682" type="line"/>
      <point x="630" y="31" type="line"/>
      <point x="468" y="682" type="line"/>
      <point x="432" y="682" type="line"/>
      <point x="272" y="31" type="line"/>
      <point x="130" y="682" type="line"/>
      <point x="98" y="682" type="line"/>
      <point x="252" y="0" type="line"/>
      <point x="287" y="0" type="line"/>
      <point x="450" y="652" type="line"/>
      <point x="613" y="0" type="line"/>
      <point x="648" y="0" type="line"/>
      <point x="802" y="682" type="line"/>
    </contour>
  </outline>
</glyph>
<glyph name="uni20A9.tosf" format="1">
  <advance width="900"/>
  <outline>
    <contour>
      <point x="114" y="299" type="line"/>
      <point x="114" y="271" type="line"/>
      <point x="802" y="271" type="line"/>
      <point x="802" y="299" type="line"/>
    </contour>
    <contour>
      <point x="114" y="391" type="line"/>
      <point x="114" y="363" type="line"/>
      <point x="802" y="363" type="line"/>
      <point x="802" y="391" type="line"/>
    </contour>
    <contour>
      <point x="771" y="662" type="line"/>
      <point x="630" y="31" type="line"/>
      <point x="468" y="662" type="line"/>
      <point x="432" y="662" type="line"/>
      <point x="272" y="31" type="line"/>
      <point x="130" y="662" type="line"/>
      <point x="98" y="662" type="line"/>
      <point x="252" y="0" type="line"/>
      <point x="287" y="0" type="line"/>
      <point x="450" y="632" type="line"/>
      <point x="613" y="0" type="line"/>
      <point x="648" y="0" type="line"/>
      <point x="802" y="662" type="line"/>
    </contour>
  </outline>
</glyph>
<glyph name="uni20AA.tf" format="1">
  <advance width="900"/>
  <outline>
    <contour>
      <point x="593" y="0" type="line" smooth="yes"/>
      <point x="742" y="0"/>
      <point x="819" y="46"/>
      <point x="819" y="214" type="curve" smooth="yes"/>
      <point x="819" y="560" type="line"/>
      <point x="789" y="560" type="line"/>
      <point x="789" y="214" type="line" smooth="yes"/>
      <point x="789" y="63"/>
      <point x="717" y="27"/>
      <point x="593" y="27" type="curve" smooth="yes"/>
      <point x="333" y="27" type="line"/>
      <point x="333" y="0" type="line"/>
    </contour>
    <contour>
      <point x="138" y="0" type="line"/>
      <point x="138" y="298" type="line" smooth="yes"/>
      <point x="138" y="419"/>
      <point x="150" y="484"/>
      <point x="182" y="538" type="curve"/>
      <point x="155" y="538" type="line"/>
      <point x="124" y="484"/>
      <point x="108" y="424"/>
      <point x="108" y="300" type="curve" smooth="yes"/>
      <point x="108" y="0" type="line"/>
    </contour>
    <contour>
      <point x="363" y="0" type="line"/>
      <point x="363" y="403" type="line"/>
      <point x="333" y="403" type="line"/>
      <point x="333" y="0" type="line"/>
    </contour>
    <contour>
      <point x="592" y="133" type="line"/>
      <point x="592" y="342" type="line" smooth="yes"/>
      <point x="592" y="515"/>
      <point x="516" y="560"/>
      <point x="366" y="560" type="curve" smooth="yes"/>
      <point x="80" y="560" type="line"/>
      <point x="80" y="533" type="line"/>
      <point x="366" y="533" type="line" smooth="yes"/>
      <point x="491" y="533"/>
      <point x="562" y="498"/>
      <point x="562" y="342" type="curve" smooth="yes"/>
      <point x="562" y="133" type="line"/>
    </contour>
  </outline>
</glyph>
<glyph name="uni20B4.tf" format="1">
  <advance width="560"/>
  <outline>
    <contour>
      <point x="210" y="694"/>
      <point x="162" y="666"/>
      <point x="110" y="624" type="curve"/>
      <point x="130" y="602" type="line"/>
      <point x="181" y="647"/>
      <point x="225" y="665"/>
      <point x="291" y="665" type="curve" smooth="yes"/>
      <point x="381" y="665"/>
      <point x="441" y="613"/>
      <point x="441" y="534" type="curve" smooth="yes"/>
      <point x="441" y="451"/>
      <point x="396" y="416"/>
      <point x="278" y="380" type="curve" smooth="yes"/>
      <point x="147" y="340"/>
      <point x="86" y="293"/>
      <point x="86" y="179" type="curve" smooth="yes"/>
      <point x="86" y="63"/>
      <point x="172" y="-10"/>
      <point x="292" y="-10" type="curve" smooth="yes"/>
      <point x="378" y="-10"/>
      <point x="440" y="22"/>
      <point x="493" y="71" type="curve"/>
      <point x="473" y="91" type="line"/>
      <point x="426" y="47"/>
      <point x="374" y="18"/>
      <point x="293" y="18" type="curve" smooth="yes"/>
      <point x="187" y="18"/>
      <point x="116" y="76"/>
      <point x="116" y="178" type="curve" smooth="yes"/>
      <point x="116" y="277"/>
      <point x="166" y="316"/>
      <point x="288" y="353" type="curve" smooth="yes"/>
      <point x="423" y="394"/>
      <point x="471" y="441"/>
      <point x="471" y="534" type="curve" smooth="yes"/>
      <point x="471" y="627"/>
      <point x="399" y="694"/>
      <point x="291" y="694" type="curve" smooth="yes"/>
    </contour>
    <contour>
      <point x="66" y="299" type="line"/>
      <point x="66" y="271" type="line"/>
      <point x="478" y="271" type="line"/>
      <point x="478" y="299" type="line"/>
    </contour>
    <contour>
      <point x="66" y="391" type="line"/>
      <point x="66" y="363" type="line"/>
      <point x="478" y="363" type="line"/>
      <point x="478" y="391" type="line"/>
    </contour>
  </outline>
</glyph>
<glyph name="uni20B4.tosf" format="1">
  <advance width="560"/>
  <outline>
    <contour>
      <point x="210" y="674"/>
      <point x="162" y="646"/>
      <point x="110" y="604" type="curve"/>
      <point x="130" y="582" type="line"/>
      <point x="181" y="627"/>
      <point x="225" y="645"/>
      <point x="291" y="645" type="curve" smooth="yes"/>
      <point x="381" y="645"/>
      <point x="441" y="593"/>
      <point x="441" y="519" type="curve" smooth="yes"/>
      <point x="441" y="441"/>
      <point x="396" y="406"/>
      <point x="278" y="370" type="curve" smooth="yes"/>
      <point x="147" y="330"/>
      <point x="86" y="283"/>
      <point x="86" y="174" type="curve" smooth="yes"/>
      <point x="86" y="63"/>
      <point x="172" y="-10"/>
      <point x="292" y="-10" type="curve" smooth="yes"/>
      <point x="378" y="-10"/>
      <point x="440" y="22"/>
      <point x="493" y="71" type="curve"/>
      <point x="473" y="91" type="line"/>
      <point x="426" y="47"/>
      <point x="374" y="18"/>
      <point x="293" y="18" type="curve" smooth="yes"/>
      <point x="187" y="18"/>
      <point x="116" y="76"/>
      <point x="116" y="173" type="curve" smooth="yes"/>
      <point x="116" y="267"/>
      <point x="166" y="306"/>
      <point x="288" y="343" type="curve" smooth="yes"/>
      <point x="423" y="385"/>
      <point x="471" y="431"/>
      <point x="471" y="519" type="curve" smooth="yes"/>
      <point x="471" y="607"/>
      <point x="399" y="674"/>
      <point x="291" y="674" type="curve" smooth="yes"/>
    </contour>
    <contour>
      <point x="66" y="299" type="line"/>
      <point x="66" y="271" type="line"/>
      <point x="478" y="271" type="line"/>
      <point x="478" y="299" type="line"/>
    </contour>
    <contour>
      <point x="66" y="391" type="line"/>
      <point x="66" y="363" type="line"/>
      <point x="478" y="363" type="line"/>
      <point x="478" y="391" type="line"/>
    </contour>
  </outline>
</glyph>
<glyph name="uni20B9.tosf" format="1">
  <advance width="560"/>
  <outline>
    <contour>
      <point x="453" y="0" type="line"/>
      <point x="259" y="302" type="line"/>
      <point x="225" y="297" type="line"/>
      <point x="414" y="0" type="line"/>
    </contour>
    <contour>
      <point x="507" y="492" type="line"/>
      <point x="507" y="521" type="line"/>
      <point x="110" y="521" type="line"/>
      <point x="110" y="492" type="line"/>
    </contour>
    <contour>
      <point x="110" y="662" type="line"/>
      <point x="110" y="634" type="line"/>
      <point x="186" y="633" type="line" smooth="yes"/>
      <point x="333" y="631"/>
      <point x="386" y="579"/>
      <point x="386" y="478" type="curve" smooth="yes"/>
      <point x="386" y="367"/>
      <point x="316" y="319"/>
      <point x="196" y="319" type="curve" smooth="yes"/>
      <point x="110" y="319" type="line"/>
      <point x="110" y="290" type="line"/>
      <point x="232" y="290" type="line"/>
      <point x="342" y="306"/>
      <point x="418" y="355"/>
      <point x="418" y="478" type="curve" smooth="yes"/>
      <point x="418" y="560"/>
      <point x="386" y="614"/>
      <point x="315" y="634" type="curve"/>
      <point x="507" y="634" type="line"/>
      <point x="507" y="662" type="line"/>
    </contour>
  </outline>
</glyph>
<glyph name="uniA7B2.sc" format="1">
  <advance width="282"/>
  <outline>
    <contour>
      <point x="120" y="-199"/>
      <point x="162" y="-141"/>
      <point x="162" y="-38" type="curve" smooth="yes"/>
      <point x="162" y="560" type="line"/>
      <point x="132" y="560" type="line"/>
      <point x="132" y="-34" type="line" smooth="yes"/>
      <point x="132" y="-132"/>
      <point x="98" y="-172"/>
      <point x="34" y="-172" type="curve" smooth="yes"/>
      <point x="-18" y="-172"/>
      <point x="-45" y="-146"/>
      <point x="-45" y="-109" type="curve" smooth="yes"/>
      <point x="-45" y="-63"/>
      <point x="-12" y="-36"/>
      <point x="49" y="-36" type="curve" smooth="yes"/>
      <point x="89" y="-36"/>
      <point x="107" y="-39"/>
      <point x="140" y="-45" type="curve"/>
      <point x="137" y="-19" type="line"/>
      <point x="115" y="-15"/>
      <point x="88" y="-11"/>
      <point x="48" y="-11" type="curve" smooth="yes"/>
      <point x="-24" y="-11"/>
      <point x="-75" y="-47"/>
      <point x="-75" y="-110" type="curve" smooth="yes"/>
      <point x="-75" y="-160"/>
      <point x="-34" y="-199"/>
      <point x="34" y="-199" type="curve" smooth="yes"/>
    </contour>
    <contour>
      <point x="262" y="-61" type="line"/>
      <point x="227" y="-44"/>
      <point x="195" y="-33"/>
      <point x="155" y="-22" type="curve"/>
      <point x="156" y="-49" type="line"/>
      <point x="186" y="-57"/>
      <point x="225" y="-71"/>
      <point x="251" y="-83" type="curve"/>
    </contour>
    <contour>
      <point x="147" y="560" type="move" name="top"/>
    </contour>
    <contour>
      <point x="136" y="-193" type="move" name="bottom"/>
    </contour>
  </outline>
</glyph>
<glyph name="uniAB53.sc" format="1">
  <advance width="435"/>
  <outline>
    <contour>
      <point x="33" y="560" type="line"/>
      <point x="196" y="262" type="line"/>
      <point x="214" y="242" type="line"/>
      <point x="386" y="-80" type="line"/>
      <point x="420" y="-80" type="line"/>
      <point x="231" y="263" type="line"/>
      <point x="213" y="282" type="line"/>
      <point x="67" y="560" type="line"/>
    </contour>
    <contour>
      <point x="359" y="560" type="line"/>
      <point x="213" y="282" type="line"/>
      <point x="196" y="262" type="line"/>
      <point x="15" y="-80" type="line"/>
      <point x="48" y="-80" type="line"/>
      <point x="214" y="242" type="line"/>
      <point x="231" y="263" type="line"/>
      <point x="392" y="560" type="line"/>
    </contour>
    <contour>
      <point x="216" y="560" type="move" name="top"/>
    </contour>
    <contour>
      <point x="216" y="-193" type="move" name="bottom"/>
    </contour>
  </outline>
</glyph>
